<mxfile host="app.diagrams.net" modified="2024-01-06T06:00:13.610Z" agent="Mozilla/5.0 (Windows NT 10.0; Win64; x64; rv:109.0) Gecko/20100101 Firefox/118.0" etag="33RiTmFcsjFjxcwBVpsP" version="22.1.16" type="device">
  <diagram name="第 1 页" id="vkSlh5MJX5IwoUNqgVl4">
    <mxGraphModel dx="2049" dy="1117" grid="0" gridSize="10" guides="1" tooltips="1" connect="1" arrows="1" fold="1" page="1" pageScale="1" pageWidth="827" pageHeight="1169" math="0" shadow="0">
      <root>
        <mxCell id="0" />
        <mxCell id="1" parent="0" />
        <mxCell id="tFzAAHaU8S95K_Trg-Dz-34" value="&lt;font style=&quot;font-size: 22px;&quot;&gt;0&lt;/font&gt;" style="whiteSpace=wrap;html=1;aspect=fixed;" vertex="1" parent="1">
          <mxGeometry x="65" y="49" width="39" height="39" as="geometry" />
        </mxCell>
        <mxCell id="tFzAAHaU8S95K_Trg-Dz-35" value="&lt;font style=&quot;font-size: 22px;&quot;&gt;0&lt;/font&gt;" style="whiteSpace=wrap;html=1;aspect=fixed;" vertex="1" parent="1">
          <mxGeometry x="104" y="49" width="39" height="39" as="geometry" />
        </mxCell>
        <mxCell id="tFzAAHaU8S95K_Trg-Dz-37" value="&lt;font style=&quot;font-size: 22px;&quot;&gt;0&lt;/font&gt;" style="whiteSpace=wrap;html=1;aspect=fixed;" vertex="1" parent="1">
          <mxGeometry x="143" y="49" width="39" height="39" as="geometry" />
        </mxCell>
        <mxCell id="tFzAAHaU8S95K_Trg-Dz-38" value="&lt;font style=&quot;font-size: 22px;&quot;&gt;0&lt;/font&gt;" style="whiteSpace=wrap;html=1;aspect=fixed;" vertex="1" parent="1">
          <mxGeometry x="182" y="49" width="39" height="39" as="geometry" />
        </mxCell>
        <mxCell id="tFzAAHaU8S95K_Trg-Dz-39" value="&lt;font style=&quot;font-size: 22px;&quot;&gt;0&lt;/font&gt;" style="whiteSpace=wrap;html=1;aspect=fixed;" vertex="1" parent="1">
          <mxGeometry x="65" y="88" width="39" height="39" as="geometry" />
        </mxCell>
        <mxCell id="tFzAAHaU8S95K_Trg-Dz-40" value="&lt;font style=&quot;font-size: 22px;&quot;&gt;0&lt;/font&gt;" style="whiteSpace=wrap;html=1;aspect=fixed;" vertex="1" parent="1">
          <mxGeometry x="104" y="88" width="39" height="39" as="geometry" />
        </mxCell>
        <mxCell id="tFzAAHaU8S95K_Trg-Dz-41" value="&lt;font style=&quot;font-size: 22px;&quot;&gt;0&lt;/font&gt;" style="whiteSpace=wrap;html=1;aspect=fixed;fillColor=#e51400;strokeColor=#B20000;fontColor=#ffffff;" vertex="1" parent="1">
          <mxGeometry x="143" y="88" width="39" height="39" as="geometry" />
        </mxCell>
        <mxCell id="tFzAAHaU8S95K_Trg-Dz-84" style="edgeStyle=orthogonalEdgeStyle;rounded=0;orthogonalLoop=1;jettySize=auto;html=1;exitX=1;exitY=1;exitDx=0;exitDy=0;entryX=0;entryY=0;entryDx=0;entryDy=0;" edge="1" parent="1" source="tFzAAHaU8S95K_Trg-Dz-42" target="tFzAAHaU8S95K_Trg-Dz-132">
          <mxGeometry relative="1" as="geometry">
            <mxPoint x="283" y="127" as="targetPoint" />
            <Array as="points">
              <mxPoint x="267" y="127" />
              <mxPoint x="267" y="127" />
            </Array>
          </mxGeometry>
        </mxCell>
        <mxCell id="tFzAAHaU8S95K_Trg-Dz-42" value="&lt;font style=&quot;font-size: 22px;&quot;&gt;0&lt;/font&gt;" style="whiteSpace=wrap;html=1;aspect=fixed;" vertex="1" parent="1">
          <mxGeometry x="182" y="88" width="39" height="39" as="geometry" />
        </mxCell>
        <mxCell id="tFzAAHaU8S95K_Trg-Dz-43" value="&lt;font style=&quot;font-size: 22px;&quot;&gt;0&lt;/font&gt;" style="whiteSpace=wrap;html=1;aspect=fixed;" vertex="1" parent="1">
          <mxGeometry x="65" y="127" width="39" height="39" as="geometry" />
        </mxCell>
        <mxCell id="tFzAAHaU8S95K_Trg-Dz-44" value="&lt;font style=&quot;font-size: 22px;&quot;&gt;0&lt;/font&gt;" style="whiteSpace=wrap;html=1;aspect=fixed;fillColor=#1ba1e2;fontColor=#ffffff;strokeColor=#006EAF;" vertex="1" parent="1">
          <mxGeometry x="104" y="127" width="39" height="39" as="geometry" />
        </mxCell>
        <mxCell id="tFzAAHaU8S95K_Trg-Dz-45" value="&lt;font style=&quot;font-size: 22px;&quot;&gt;0&lt;/font&gt;" style="whiteSpace=wrap;html=1;aspect=fixed;" vertex="1" parent="1">
          <mxGeometry x="143" y="127" width="39" height="39" as="geometry" />
        </mxCell>
        <mxCell id="tFzAAHaU8S95K_Trg-Dz-46" value="&lt;font style=&quot;font-size: 22px;&quot;&gt;0&lt;/font&gt;" style="whiteSpace=wrap;html=1;aspect=fixed;" vertex="1" parent="1">
          <mxGeometry x="182" y="127" width="39" height="39" as="geometry" />
        </mxCell>
        <mxCell id="tFzAAHaU8S95K_Trg-Dz-47" value="&lt;font style=&quot;font-size: 22px;&quot;&gt;0&lt;/font&gt;" style="whiteSpace=wrap;html=1;aspect=fixed;fillColor=#e51400;fontColor=#ffffff;strokeColor=#B20000;" vertex="1" parent="1">
          <mxGeometry x="65" y="166" width="39" height="39" as="geometry" />
        </mxCell>
        <mxCell id="tFzAAHaU8S95K_Trg-Dz-48" value="&lt;font style=&quot;font-size: 22px;&quot;&gt;0&lt;/font&gt;" style="whiteSpace=wrap;html=1;aspect=fixed;" vertex="1" parent="1">
          <mxGeometry x="104" y="166" width="39" height="39" as="geometry" />
        </mxCell>
        <mxCell id="tFzAAHaU8S95K_Trg-Dz-49" value="&lt;font style=&quot;font-size: 22px;&quot;&gt;0&lt;/font&gt;" style="whiteSpace=wrap;html=1;aspect=fixed;" vertex="1" parent="1">
          <mxGeometry x="143" y="166" width="39" height="39" as="geometry" />
        </mxCell>
        <mxCell id="tFzAAHaU8S95K_Trg-Dz-50" value="&lt;font style=&quot;font-size: 22px;&quot;&gt;0&lt;/font&gt;" style="whiteSpace=wrap;html=1;aspect=fixed;" vertex="1" parent="1">
          <mxGeometry x="182" y="166" width="39" height="39" as="geometry" />
        </mxCell>
        <mxCell id="tFzAAHaU8S95K_Trg-Dz-85" value="&lt;div&gt;&lt;font style=&quot;font-size: 20px;&quot;&gt;Th1: &lt;font style=&quot;font-size: 20px;&quot;&gt;[4, 1]&lt;/font&gt;&lt;br&gt;&lt;/font&gt;&lt;/div&gt;&lt;div&gt;&lt;font style=&quot;font-size: 20px;&quot;&gt;Th2: [2, 3]&lt;br&gt;&lt;/font&gt;&lt;/div&gt;" style="text;strokeColor=none;align=center;fillColor=none;html=1;verticalAlign=middle;whiteSpace=wrap;rounded=0;" vertex="1" parent="1">
          <mxGeometry x="81" y="225" width="126" height="30" as="geometry" />
        </mxCell>
        <mxCell id="tFzAAHaU8S95K_Trg-Dz-122" value="" style="endArrow=none;html=1;rounded=0;fillColor=#60a917;strokeColor=#2D7600;strokeWidth=9;entryX=0;entryY=0;entryDx=0;entryDy=0;exitX=0;exitY=1;exitDx=0;exitDy=0;" edge="1" parent="1" source="tFzAAHaU8S95K_Trg-Dz-49" target="tFzAAHaU8S95K_Trg-Dz-37">
          <mxGeometry width="50" height="50" relative="1" as="geometry">
            <mxPoint x="147" y="243" as="sourcePoint" />
            <mxPoint x="142" y="22" as="targetPoint" />
          </mxGeometry>
        </mxCell>
        <mxCell id="tFzAAHaU8S95K_Trg-Dz-124" value="&lt;font style=&quot;font-size: 22px;&quot;&gt;0&lt;/font&gt;" style="whiteSpace=wrap;html=1;aspect=fixed;" vertex="1" parent="1">
          <mxGeometry x="287" y="49" width="39" height="39" as="geometry" />
        </mxCell>
        <mxCell id="tFzAAHaU8S95K_Trg-Dz-125" value="&lt;font style=&quot;font-size: 22px;&quot;&gt;0&lt;/font&gt;" style="whiteSpace=wrap;html=1;aspect=fixed;" vertex="1" parent="1">
          <mxGeometry x="326" y="49" width="39" height="39" as="geometry" />
        </mxCell>
        <mxCell id="tFzAAHaU8S95K_Trg-Dz-126" value="&lt;font style=&quot;font-size: 22px;&quot;&gt;0&lt;/font&gt;" style="whiteSpace=wrap;html=1;aspect=fixed;" vertex="1" parent="1">
          <mxGeometry x="365" y="49" width="39" height="39" as="geometry" />
        </mxCell>
        <mxCell id="tFzAAHaU8S95K_Trg-Dz-127" value="&lt;font style=&quot;font-size: 22px;&quot;&gt;0&lt;/font&gt;" style="whiteSpace=wrap;html=1;aspect=fixed;" vertex="1" parent="1">
          <mxGeometry x="404" y="49" width="39" height="39" as="geometry" />
        </mxCell>
        <mxCell id="tFzAAHaU8S95K_Trg-Dz-128" value="&lt;font style=&quot;font-size: 22px;&quot;&gt;0&lt;/font&gt;" style="whiteSpace=wrap;html=1;aspect=fixed;" vertex="1" parent="1">
          <mxGeometry x="287" y="88" width="39" height="39" as="geometry" />
        </mxCell>
        <mxCell id="tFzAAHaU8S95K_Trg-Dz-129" value="&lt;font style=&quot;font-size: 22px;&quot;&gt;0&lt;/font&gt;" style="whiteSpace=wrap;html=1;aspect=fixed;" vertex="1" parent="1">
          <mxGeometry x="326" y="88" width="39" height="39" as="geometry" />
        </mxCell>
        <mxCell id="tFzAAHaU8S95K_Trg-Dz-130" value="&lt;font style=&quot;font-size: 22px;&quot;&gt;1&lt;/font&gt;" style="whiteSpace=wrap;html=1;aspect=fixed;fillColor=#e51400;strokeColor=#B20000;fontColor=#ffffff;" vertex="1" parent="1">
          <mxGeometry x="365" y="88" width="39" height="39" as="geometry" />
        </mxCell>
        <mxCell id="tFzAAHaU8S95K_Trg-Dz-131" value="&lt;font style=&quot;font-size: 22px;&quot;&gt;0&lt;/font&gt;" style="whiteSpace=wrap;html=1;aspect=fixed;" vertex="1" parent="1">
          <mxGeometry x="404" y="88" width="39" height="39" as="geometry" />
        </mxCell>
        <mxCell id="tFzAAHaU8S95K_Trg-Dz-132" value="&lt;font style=&quot;font-size: 22px;&quot;&gt;0&lt;/font&gt;" style="whiteSpace=wrap;html=1;aspect=fixed;" vertex="1" parent="1">
          <mxGeometry x="287" y="127" width="39" height="39" as="geometry" />
        </mxCell>
        <mxCell id="tFzAAHaU8S95K_Trg-Dz-133" value="&lt;font style=&quot;font-size: 22px;&quot;&gt;0&lt;/font&gt;" style="whiteSpace=wrap;html=1;aspect=fixed;fillColor=#1ba1e2;fontColor=#ffffff;strokeColor=none;strokeWidth=1;" vertex="1" parent="1">
          <mxGeometry x="326" y="127" width="39" height="39" as="geometry" />
        </mxCell>
        <mxCell id="tFzAAHaU8S95K_Trg-Dz-134" value="&lt;font style=&quot;font-size: 22px;&quot;&gt;0&lt;/font&gt;" style="whiteSpace=wrap;html=1;aspect=fixed;" vertex="1" parent="1">
          <mxGeometry x="365" y="127" width="39" height="39" as="geometry" />
        </mxCell>
        <mxCell id="tFzAAHaU8S95K_Trg-Dz-135" value="&lt;font style=&quot;font-size: 22px;&quot;&gt;0&lt;/font&gt;" style="whiteSpace=wrap;html=1;aspect=fixed;" vertex="1" parent="1">
          <mxGeometry x="404" y="127" width="39" height="39" as="geometry" />
        </mxCell>
        <mxCell id="tFzAAHaU8S95K_Trg-Dz-136" value="&lt;font style=&quot;font-size: 22px;&quot;&gt;1&lt;/font&gt;" style="whiteSpace=wrap;html=1;aspect=fixed;fillColor=#e51400;fontColor=#ffffff;strokeColor=#B20000;" vertex="1" parent="1">
          <mxGeometry x="287" y="166" width="39" height="39" as="geometry" />
        </mxCell>
        <mxCell id="tFzAAHaU8S95K_Trg-Dz-137" value="&lt;font style=&quot;font-size: 22px;&quot;&gt;0&lt;/font&gt;" style="whiteSpace=wrap;html=1;aspect=fixed;" vertex="1" parent="1">
          <mxGeometry x="326" y="166" width="39" height="39" as="geometry" />
        </mxCell>
        <mxCell id="tFzAAHaU8S95K_Trg-Dz-138" value="&lt;font style=&quot;font-size: 22px;&quot;&gt;0&lt;/font&gt;" style="whiteSpace=wrap;html=1;aspect=fixed;" vertex="1" parent="1">
          <mxGeometry x="365" y="166" width="39" height="39" as="geometry" />
        </mxCell>
        <mxCell id="tFzAAHaU8S95K_Trg-Dz-139" value="&lt;font style=&quot;font-size: 22px;&quot;&gt;0&lt;/font&gt;" style="whiteSpace=wrap;html=1;aspect=fixed;" vertex="1" parent="1">
          <mxGeometry x="404" y="166" width="39" height="39" as="geometry" />
        </mxCell>
        <mxCell id="tFzAAHaU8S95K_Trg-Dz-140" value="&lt;div&gt;&lt;font style=&quot;font-size: 20px;&quot;&gt;Th1: &lt;font style=&quot;font-size: 20px;&quot;&gt;[3, 2]&lt;/font&gt;&lt;br&gt;&lt;/font&gt;&lt;/div&gt;&lt;div&gt;&lt;font style=&quot;font-size: 20px;&quot;&gt;Th2: [3, 2]&lt;br&gt;&lt;/font&gt;&lt;/div&gt;" style="text;strokeColor=none;align=center;fillColor=none;html=1;verticalAlign=middle;whiteSpace=wrap;rounded=0;" vertex="1" parent="1">
          <mxGeometry x="303" y="225" width="126" height="30" as="geometry" />
        </mxCell>
        <mxCell id="tFzAAHaU8S95K_Trg-Dz-141" value="" style="endArrow=none;html=1;rounded=0;fillColor=#60a917;strokeColor=#2D7600;strokeWidth=9;entryX=0;entryY=0;entryDx=0;entryDy=0;exitX=0;exitY=1;exitDx=0;exitDy=0;" edge="1" parent="1" source="tFzAAHaU8S95K_Trg-Dz-138" target="tFzAAHaU8S95K_Trg-Dz-126">
          <mxGeometry width="50" height="50" relative="1" as="geometry">
            <mxPoint x="369" y="243" as="sourcePoint" />
            <mxPoint x="364" y="22" as="targetPoint" />
          </mxGeometry>
        </mxCell>
        <mxCell id="tFzAAHaU8S95K_Trg-Dz-142" value="" style="endArrow=classic;html=1;rounded=0;exitX=0.5;exitY=0;exitDx=0;exitDy=0;" edge="1" parent="1" source="tFzAAHaU8S95K_Trg-Dz-143">
          <mxGeometry width="50" height="50" relative="1" as="geometry">
            <mxPoint x="505" y="221" as="sourcePoint" />
            <mxPoint x="349" y="150.99775609756097" as="targetPoint" />
          </mxGeometry>
        </mxCell>
        <mxCell id="tFzAAHaU8S95K_Trg-Dz-143" value="&lt;font style=&quot;font-size: 22px;&quot;&gt;Race Condition&lt;/font&gt;" style="text;strokeColor=none;align=center;fillColor=none;html=1;verticalAlign=middle;whiteSpace=wrap;rounded=0;" vertex="1" parent="1">
          <mxGeometry x="482" y="225" width="168" height="30" as="geometry" />
        </mxCell>
        <mxCell id="tFzAAHaU8S95K_Trg-Dz-145" value="&lt;font style=&quot;font-size: 16px;&quot;&gt;Queue_Th1&lt;/font&gt;" style="rounded=0;whiteSpace=wrap;html=1;" vertex="1" parent="1">
          <mxGeometry x="269" y="433" width="91" height="58" as="geometry" />
        </mxCell>
        <mxCell id="tFzAAHaU8S95K_Trg-Dz-147" value="&lt;font style=&quot;font-size: 16px;&quot;&gt;Queue_Th1&lt;/font&gt;" style="rounded=0;whiteSpace=wrap;html=1;" vertex="1" parent="1">
          <mxGeometry x="395" y="433" width="91" height="58" as="geometry" />
        </mxCell>
        <mxCell id="tFzAAHaU8S95K_Trg-Dz-148" value="" style="endArrow=classic;html=1;rounded=0;exitX=0.5;exitY=1;exitDx=0;exitDy=0;entryX=0.5;entryY=0;entryDx=0;entryDy=0;" edge="1" parent="1" source="tFzAAHaU8S95K_Trg-Dz-149" target="tFzAAHaU8S95K_Trg-Dz-147">
          <mxGeometry width="50" height="50" relative="1" as="geometry">
            <mxPoint x="441" y="407" as="sourcePoint" />
            <mxPoint x="498" y="418" as="targetPoint" />
          </mxGeometry>
        </mxCell>
        <mxCell id="tFzAAHaU8S95K_Trg-Dz-149" value="Enqueue" style="text;strokeColor=none;align=center;fillColor=none;html=1;verticalAlign=middle;whiteSpace=wrap;rounded=0;" vertex="1" parent="1">
          <mxGeometry x="410.5" y="387" width="60" height="30" as="geometry" />
        </mxCell>
        <mxCell id="tFzAAHaU8S95K_Trg-Dz-150" value="&lt;font style=&quot;font-size: 20px;&quot;&gt;Master Queue&lt;br&gt;&lt;/font&gt;" style="rounded=0;whiteSpace=wrap;html=1;" vertex="1" parent="1">
          <mxGeometry x="110" y="544" width="117" height="58" as="geometry" />
        </mxCell>
        <mxCell id="tFzAAHaU8S95K_Trg-Dz-151" value="&lt;font style=&quot;font-size: 16px;&quot;&gt;Queue_Th1&lt;/font&gt;" style="rounded=0;whiteSpace=wrap;html=1;" vertex="1" parent="1">
          <mxGeometry x="519" y="433" width="91" height="58" as="geometry" />
        </mxCell>
        <mxCell id="tFzAAHaU8S95K_Trg-Dz-152" value="" style="endArrow=classic;html=1;rounded=0;exitX=0.5;exitY=0;exitDx=0;exitDy=0;entryX=0.5;entryY=1;entryDx=0;entryDy=0;" edge="1" parent="1" source="tFzAAHaU8S95K_Trg-Dz-151" target="tFzAAHaU8S95K_Trg-Dz-153">
          <mxGeometry width="50" height="50" relative="1" as="geometry">
            <mxPoint x="565" y="407" as="sourcePoint" />
            <mxPoint x="735" y="402" as="targetPoint" />
          </mxGeometry>
        </mxCell>
        <mxCell id="tFzAAHaU8S95K_Trg-Dz-153" value="Dequeue" style="text;strokeColor=none;align=center;fillColor=none;html=1;verticalAlign=middle;whiteSpace=wrap;rounded=0;" vertex="1" parent="1">
          <mxGeometry x="534.5" y="387" width="60" height="30" as="geometry" />
        </mxCell>
        <mxCell id="tFzAAHaU8S95K_Trg-Dz-154" value="&lt;font style=&quot;font-size: 20px;&quot;&gt;....&lt;/font&gt;" style="text;strokeColor=none;align=center;fillColor=none;html=1;verticalAlign=middle;whiteSpace=wrap;rounded=0;" vertex="1" parent="1">
          <mxGeometry x="619" y="447" width="60" height="30" as="geometry" />
        </mxCell>
        <mxCell id="tFzAAHaU8S95K_Trg-Dz-155" value="" style="endArrow=classic;html=1;rounded=0;exitX=0;exitY=1;exitDx=0;exitDy=0;" edge="1" parent="1" source="tFzAAHaU8S95K_Trg-Dz-145">
          <mxGeometry width="50" height="50" relative="1" as="geometry">
            <mxPoint x="496" y="478" as="sourcePoint" />
            <mxPoint x="655" y="491" as="targetPoint" />
          </mxGeometry>
        </mxCell>
        <mxCell id="tFzAAHaU8S95K_Trg-Dz-156" value="&lt;font style=&quot;font-size: 16px;&quot;&gt;Queue_Th2&lt;/font&gt;" style="rounded=0;whiteSpace=wrap;html=1;" vertex="1" parent="1">
          <mxGeometry x="269" y="544" width="91" height="58" as="geometry" />
        </mxCell>
        <mxCell id="tFzAAHaU8S95K_Trg-Dz-157" value="&lt;font style=&quot;font-size: 16px;&quot;&gt;Queue_Th2&lt;/font&gt;" style="rounded=0;whiteSpace=wrap;html=1;" vertex="1" parent="1">
          <mxGeometry x="395" y="544" width="91" height="58" as="geometry" />
        </mxCell>
        <mxCell id="tFzAAHaU8S95K_Trg-Dz-158" value="" style="endArrow=classic;html=1;rounded=0;exitX=0.5;exitY=1;exitDx=0;exitDy=0;entryX=0.5;entryY=0;entryDx=0;entryDy=0;" edge="1" parent="1" source="tFzAAHaU8S95K_Trg-Dz-159" target="tFzAAHaU8S95K_Trg-Dz-157">
          <mxGeometry width="50" height="50" relative="1" as="geometry">
            <mxPoint x="441" y="518" as="sourcePoint" />
            <mxPoint x="498" y="529" as="targetPoint" />
          </mxGeometry>
        </mxCell>
        <mxCell id="tFzAAHaU8S95K_Trg-Dz-159" value="Enqueue" style="text;strokeColor=none;align=center;fillColor=none;html=1;verticalAlign=middle;whiteSpace=wrap;rounded=0;" vertex="1" parent="1">
          <mxGeometry x="410.5" y="498" width="60" height="30" as="geometry" />
        </mxCell>
        <mxCell id="tFzAAHaU8S95K_Trg-Dz-160" value="&lt;font style=&quot;font-size: 16px;&quot;&gt;Queue_Th2&lt;/font&gt;" style="rounded=0;whiteSpace=wrap;html=1;" vertex="1" parent="1">
          <mxGeometry x="519" y="544" width="91" height="58" as="geometry" />
        </mxCell>
        <mxCell id="tFzAAHaU8S95K_Trg-Dz-161" value="" style="endArrow=classic;html=1;rounded=0;exitX=0.5;exitY=0;exitDx=0;exitDy=0;entryX=0.5;entryY=1;entryDx=0;entryDy=0;" edge="1" parent="1" source="tFzAAHaU8S95K_Trg-Dz-160" target="tFzAAHaU8S95K_Trg-Dz-162">
          <mxGeometry width="50" height="50" relative="1" as="geometry">
            <mxPoint x="565" y="518" as="sourcePoint" />
            <mxPoint x="735" y="513" as="targetPoint" />
          </mxGeometry>
        </mxCell>
        <mxCell id="tFzAAHaU8S95K_Trg-Dz-162" value="Dequeue" style="text;strokeColor=none;align=center;fillColor=none;html=1;verticalAlign=middle;whiteSpace=wrap;rounded=0;" vertex="1" parent="1">
          <mxGeometry x="534.5" y="498" width="60" height="30" as="geometry" />
        </mxCell>
        <mxCell id="tFzAAHaU8S95K_Trg-Dz-163" value="&lt;font style=&quot;font-size: 20px;&quot;&gt;....&lt;/font&gt;" style="text;strokeColor=none;align=center;fillColor=none;html=1;verticalAlign=middle;whiteSpace=wrap;rounded=0;" vertex="1" parent="1">
          <mxGeometry x="619" y="558" width="60" height="30" as="geometry" />
        </mxCell>
        <mxCell id="tFzAAHaU8S95K_Trg-Dz-164" value="" style="endArrow=classic;html=1;rounded=0;exitX=0;exitY=1;exitDx=0;exitDy=0;" edge="1" parent="1" source="tFzAAHaU8S95K_Trg-Dz-156">
          <mxGeometry width="50" height="50" relative="1" as="geometry">
            <mxPoint x="496" y="589" as="sourcePoint" />
            <mxPoint x="655" y="602" as="targetPoint" />
          </mxGeometry>
        </mxCell>
        <mxCell id="tFzAAHaU8S95K_Trg-Dz-165" value="" style="endArrow=classic;html=1;rounded=0;exitX=1;exitY=0.5;exitDx=0;exitDy=0;entryX=0;entryY=0.5;entryDx=0;entryDy=0;" edge="1" parent="1" source="tFzAAHaU8S95K_Trg-Dz-150" target="tFzAAHaU8S95K_Trg-Dz-145">
          <mxGeometry width="50" height="50" relative="1" as="geometry">
            <mxPoint x="496" y="478" as="sourcePoint" />
            <mxPoint x="546" y="428" as="targetPoint" />
          </mxGeometry>
        </mxCell>
        <mxCell id="tFzAAHaU8S95K_Trg-Dz-166" value="" style="endArrow=classic;html=1;rounded=0;exitX=1;exitY=0.5;exitDx=0;exitDy=0;entryX=0;entryY=0.5;entryDx=0;entryDy=0;" edge="1" parent="1" source="tFzAAHaU8S95K_Trg-Dz-150" target="tFzAAHaU8S95K_Trg-Dz-156">
          <mxGeometry width="50" height="50" relative="1" as="geometry">
            <mxPoint x="237" y="583" as="sourcePoint" />
            <mxPoint x="279" y="472" as="targetPoint" />
          </mxGeometry>
        </mxCell>
        <mxCell id="tFzAAHaU8S95K_Trg-Dz-167" value="" style="endArrow=classic;html=1;rounded=0;exitX=1;exitY=0.5;exitDx=0;exitDy=0;" edge="1" parent="1" source="tFzAAHaU8S95K_Trg-Dz-150">
          <mxGeometry width="50" height="50" relative="1" as="geometry">
            <mxPoint x="237" y="583" as="sourcePoint" />
            <mxPoint x="261" y="648" as="targetPoint" />
          </mxGeometry>
        </mxCell>
        <mxCell id="tFzAAHaU8S95K_Trg-Dz-168" value="&lt;font style=&quot;font-size: 20px;&quot;&gt;....&lt;/font&gt;" style="text;strokeColor=none;align=center;fillColor=none;html=1;verticalAlign=middle;whiteSpace=wrap;rounded=0;" vertex="1" parent="1">
          <mxGeometry x="266" y="635" width="60" height="30" as="geometry" />
        </mxCell>
        <mxCell id="tFzAAHaU8S95K_Trg-Dz-169" value="&lt;font style=&quot;font-size: 20px;&quot;&gt;Shared Queue&lt;br&gt;&lt;/font&gt;" style="rounded=0;whiteSpace=wrap;html=1;" vertex="1" parent="1">
          <mxGeometry x="118" y="800" width="117" height="58" as="geometry" />
        </mxCell>
        <mxCell id="tFzAAHaU8S95K_Trg-Dz-170" value="Dequeue" style="text;strokeColor=none;align=center;fillColor=none;html=1;verticalAlign=middle;whiteSpace=wrap;rounded=0;" vertex="1" parent="1">
          <mxGeometry x="284.5" y="387" width="60" height="30" as="geometry" />
        </mxCell>
        <mxCell id="tFzAAHaU8S95K_Trg-Dz-171" value="" style="endArrow=classic;html=1;rounded=0;exitX=0.5;exitY=0;exitDx=0;exitDy=0;entryX=0.5;entryY=1;entryDx=0;entryDy=0;" edge="1" parent="1" source="tFzAAHaU8S95K_Trg-Dz-145" target="tFzAAHaU8S95K_Trg-Dz-170">
          <mxGeometry width="50" height="50" relative="1" as="geometry">
            <mxPoint x="451" y="427" as="sourcePoint" />
            <mxPoint x="381" y="446" as="targetPoint" />
          </mxGeometry>
        </mxCell>
        <mxCell id="tFzAAHaU8S95K_Trg-Dz-175" value="Dequeue" style="text;strokeColor=none;align=center;fillColor=none;html=1;verticalAlign=middle;whiteSpace=wrap;rounded=0;" vertex="1" parent="1">
          <mxGeometry x="284.5" y="498" width="60" height="30" as="geometry" />
        </mxCell>
        <mxCell id="tFzAAHaU8S95K_Trg-Dz-176" value="" style="endArrow=classic;html=1;rounded=0;exitX=0.5;exitY=0;exitDx=0;exitDy=0;entryX=0.5;entryY=1;entryDx=0;entryDy=0;" edge="1" parent="1" target="tFzAAHaU8S95K_Trg-Dz-175">
          <mxGeometry width="50" height="50" relative="1" as="geometry">
            <mxPoint x="315" y="544" as="sourcePoint" />
            <mxPoint x="381" y="557" as="targetPoint" />
          </mxGeometry>
        </mxCell>
        <mxCell id="tFzAAHaU8S95K_Trg-Dz-177" value="&lt;font style=&quot;font-size: 16px;&quot;&gt;Thread#1&lt;/font&gt;" style="rounded=0;whiteSpace=wrap;html=1;" vertex="1" parent="1">
          <mxGeometry x="303" y="730" width="79.5" height="42" as="geometry" />
        </mxCell>
        <mxCell id="tFzAAHaU8S95K_Trg-Dz-178" value="&lt;font style=&quot;font-size: 16px;&quot;&gt;Thread#2&lt;/font&gt;" style="rounded=0;whiteSpace=wrap;html=1;" vertex="1" parent="1">
          <mxGeometry x="303" y="808" width="79.5" height="42" as="geometry" />
        </mxCell>
        <mxCell id="tFzAAHaU8S95K_Trg-Dz-179" value="&lt;font style=&quot;font-size: 16px;&quot;&gt;Thread#3&lt;/font&gt;" style="rounded=0;whiteSpace=wrap;html=1;" vertex="1" parent="1">
          <mxGeometry x="303" y="889" width="79.5" height="42" as="geometry" />
        </mxCell>
        <mxCell id="tFzAAHaU8S95K_Trg-Dz-180" value="" style="endArrow=classic;html=1;rounded=0;exitX=1;exitY=0.5;exitDx=0;exitDy=0;entryX=0;entryY=0.5;entryDx=0;entryDy=0;" edge="1" parent="1" source="tFzAAHaU8S95K_Trg-Dz-169" target="tFzAAHaU8S95K_Trg-Dz-177">
          <mxGeometry width="50" height="50" relative="1" as="geometry">
            <mxPoint x="253" y="618" as="sourcePoint" />
            <mxPoint x="287" y="693" as="targetPoint" />
          </mxGeometry>
        </mxCell>
        <mxCell id="tFzAAHaU8S95K_Trg-Dz-181" value="" style="endArrow=classic;html=1;rounded=0;exitX=1;exitY=0.5;exitDx=0;exitDy=0;entryX=0;entryY=0.5;entryDx=0;entryDy=0;" edge="1" parent="1" source="tFzAAHaU8S95K_Trg-Dz-169" target="tFzAAHaU8S95K_Trg-Dz-178">
          <mxGeometry width="50" height="50" relative="1" as="geometry">
            <mxPoint x="253" y="831" as="sourcePoint" />
            <mxPoint x="295" y="767" as="targetPoint" />
          </mxGeometry>
        </mxCell>
        <mxCell id="tFzAAHaU8S95K_Trg-Dz-182" value="" style="endArrow=classic;html=1;rounded=0;exitX=1;exitY=0.5;exitDx=0;exitDy=0;entryX=0;entryY=0.5;entryDx=0;entryDy=0;" edge="1" parent="1" source="tFzAAHaU8S95K_Trg-Dz-169" target="tFzAAHaU8S95K_Trg-Dz-179">
          <mxGeometry width="50" height="50" relative="1" as="geometry">
            <mxPoint x="253" y="831" as="sourcePoint" />
            <mxPoint x="295" y="839" as="targetPoint" />
          </mxGeometry>
        </mxCell>
        <mxCell id="tFzAAHaU8S95K_Trg-Dz-183" value="Dequeue" style="text;strokeColor=none;align=center;fillColor=none;html=1;verticalAlign=middle;whiteSpace=wrap;rounded=0;" vertex="1" parent="1">
          <mxGeometry x="229" y="751" width="60" height="30" as="geometry" />
        </mxCell>
        <mxCell id="tFzAAHaU8S95K_Trg-Dz-184" value="Dequeue" style="text;strokeColor=none;align=center;fillColor=none;html=1;verticalAlign=middle;whiteSpace=wrap;rounded=0;" vertex="1" parent="1">
          <mxGeometry x="241" y="806" width="60" height="30" as="geometry" />
        </mxCell>
        <mxCell id="tFzAAHaU8S95K_Trg-Dz-185" value="Dequeue" style="text;strokeColor=none;align=center;fillColor=none;html=1;verticalAlign=middle;whiteSpace=wrap;rounded=0;" vertex="1" parent="1">
          <mxGeometry x="229" y="875" width="60" height="30" as="geometry" />
        </mxCell>
        <mxCell id="tFzAAHaU8S95K_Trg-Dz-186" value="" style="endArrow=none;html=1;rounded=0;exitX=1;exitY=1;exitDx=0;exitDy=0;entryX=1;entryY=0;entryDx=0;entryDy=0;strokeWidth=6;strokeColor=#FF3333;" edge="1" parent="1">
          <mxGeometry width="50" height="50" relative="1" as="geometry">
            <mxPoint x="382.5" y="931" as="sourcePoint" />
            <mxPoint x="382.5" y="730" as="targetPoint" />
          </mxGeometry>
        </mxCell>
        <mxCell id="tFzAAHaU8S95K_Trg-Dz-187" value="&lt;font color=&quot;#ff3333&quot; style=&quot;font-size: 16px;&quot;&gt;Barrier&lt;/font&gt;" style="text;strokeColor=none;align=center;fillColor=none;html=1;verticalAlign=middle;whiteSpace=wrap;rounded=0;" vertex="1" parent="1">
          <mxGeometry x="352" y="689" width="60" height="30" as="geometry" />
        </mxCell>
        <mxCell id="tFzAAHaU8S95K_Trg-Dz-188" value="&lt;font style=&quot;font-size: 20px;&quot;&gt;Shared Queue&lt;br&gt;&lt;/font&gt;" style="rounded=0;whiteSpace=wrap;html=1;" vertex="1" parent="1">
          <mxGeometry x="457" y="800" width="117" height="58" as="geometry" />
        </mxCell>
        <mxCell id="tFzAAHaU8S95K_Trg-Dz-189" value="&lt;font style=&quot;font-size: 20px;&quot;&gt;....&lt;/font&gt;" style="text;strokeColor=none;align=center;fillColor=none;html=1;verticalAlign=middle;whiteSpace=wrap;rounded=0;" vertex="1" parent="1">
          <mxGeometry x="312.75" y="946" width="60" height="30" as="geometry" />
        </mxCell>
        <mxCell id="tFzAAHaU8S95K_Trg-Dz-190" value="" style="endArrow=classic;html=1;rounded=0;entryX=0;entryY=0.5;entryDx=0;entryDy=0;exitX=1;exitY=0.5;exitDx=0;exitDy=0;" edge="1" parent="1" source="tFzAAHaU8S95K_Trg-Dz-177" target="tFzAAHaU8S95K_Trg-Dz-188">
          <mxGeometry width="50" height="50" relative="1" as="geometry">
            <mxPoint x="484" y="745" as="sourcePoint" />
            <mxPoint x="313" y="761" as="targetPoint" />
          </mxGeometry>
        </mxCell>
        <mxCell id="tFzAAHaU8S95K_Trg-Dz-191" value="" style="endArrow=classic;html=1;rounded=0;entryX=0;entryY=0.5;entryDx=0;entryDy=0;exitX=1;exitY=0.5;exitDx=0;exitDy=0;" edge="1" parent="1" source="tFzAAHaU8S95K_Trg-Dz-194" target="tFzAAHaU8S95K_Trg-Dz-188">
          <mxGeometry width="50" height="50" relative="1" as="geometry">
            <mxPoint x="393" y="761" as="sourcePoint" />
            <mxPoint x="464" y="839" as="targetPoint" />
          </mxGeometry>
        </mxCell>
        <mxCell id="tFzAAHaU8S95K_Trg-Dz-192" value="" style="endArrow=classic;html=1;rounded=0;exitX=1;exitY=0.5;exitDx=0;exitDy=0;entryX=0;entryY=0.5;entryDx=0;entryDy=0;" edge="1" parent="1" source="tFzAAHaU8S95K_Trg-Dz-179" target="tFzAAHaU8S95K_Trg-Dz-188">
          <mxGeometry width="50" height="50" relative="1" as="geometry">
            <mxPoint x="393" y="839" as="sourcePoint" />
            <mxPoint x="469" y="936" as="targetPoint" />
          </mxGeometry>
        </mxCell>
        <mxCell id="tFzAAHaU8S95K_Trg-Dz-193" value="Enqueue" style="text;strokeColor=none;align=center;fillColor=none;html=1;verticalAlign=middle;whiteSpace=wrap;rounded=0;" vertex="1" parent="1">
          <mxGeometry x="403" y="753" width="60" height="30" as="geometry" />
        </mxCell>
        <mxCell id="tFzAAHaU8S95K_Trg-Dz-195" value="" style="endArrow=classic;html=1;rounded=0;entryX=0;entryY=0.5;entryDx=0;entryDy=0;exitX=1;exitY=0.5;exitDx=0;exitDy=0;" edge="1" parent="1" source="tFzAAHaU8S95K_Trg-Dz-178" target="tFzAAHaU8S95K_Trg-Dz-194">
          <mxGeometry width="50" height="50" relative="1" as="geometry">
            <mxPoint x="383" y="829" as="sourcePoint" />
            <mxPoint x="457" y="829" as="targetPoint" />
          </mxGeometry>
        </mxCell>
        <mxCell id="tFzAAHaU8S95K_Trg-Dz-194" value="Enqueue" style="text;strokeColor=none;align=center;fillColor=none;html=1;verticalAlign=middle;whiteSpace=wrap;rounded=0;" vertex="1" parent="1">
          <mxGeometry x="382.5" y="806" width="60" height="30" as="geometry" />
        </mxCell>
        <mxCell id="tFzAAHaU8S95K_Trg-Dz-196" value="Enqueue" style="text;strokeColor=none;align=center;fillColor=none;html=1;verticalAlign=middle;whiteSpace=wrap;rounded=0;" vertex="1" parent="1">
          <mxGeometry x="403" y="875" width="60" height="30" as="geometry" />
        </mxCell>
        <mxCell id="tFzAAHaU8S95K_Trg-Dz-200" value="" style="endArrow=classic;html=1;rounded=0;exitX=1;exitY=0.5;exitDx=0;exitDy=0;entryX=0;entryY=0.5;entryDx=0;entryDy=0;" edge="1" parent="1">
          <mxGeometry width="50" height="50" relative="1" as="geometry">
            <mxPoint x="574" y="831" as="sourcePoint" />
            <mxPoint x="642" y="753" as="targetPoint" />
          </mxGeometry>
        </mxCell>
        <mxCell id="tFzAAHaU8S95K_Trg-Dz-201" value="" style="endArrow=classic;html=1;rounded=0;exitX=1;exitY=0.5;exitDx=0;exitDy=0;entryX=0;entryY=0.5;entryDx=0;entryDy=0;" edge="1" parent="1">
          <mxGeometry width="50" height="50" relative="1" as="geometry">
            <mxPoint x="574" y="831" as="sourcePoint" />
            <mxPoint x="642" y="831" as="targetPoint" />
          </mxGeometry>
        </mxCell>
        <mxCell id="tFzAAHaU8S95K_Trg-Dz-202" value="" style="endArrow=classic;html=1;rounded=0;exitX=1;exitY=0.5;exitDx=0;exitDy=0;entryX=0;entryY=0.5;entryDx=0;entryDy=0;" edge="1" parent="1">
          <mxGeometry width="50" height="50" relative="1" as="geometry">
            <mxPoint x="574" y="831" as="sourcePoint" />
            <mxPoint x="642" y="912" as="targetPoint" />
          </mxGeometry>
        </mxCell>
        <mxCell id="tFzAAHaU8S95K_Trg-Dz-206" value="&lt;font style=&quot;font-size: 20px;&quot;&gt;....&lt;/font&gt;" style="text;strokeColor=none;align=center;fillColor=none;html=1;verticalAlign=middle;whiteSpace=wrap;rounded=0;" vertex="1" parent="1">
          <mxGeometry x="650" y="814" width="60" height="30" as="geometry" />
        </mxCell>
        <mxCell id="tFzAAHaU8S95K_Trg-Dz-207" value="" style="rounded=0;whiteSpace=wrap;html=1;fillColor=none;strokeColor=none;" vertex="1" parent="1">
          <mxGeometry x="92" y="382" width="616" height="610" as="geometry" />
        </mxCell>
        <mxCell id="tFzAAHaU8S95K_Trg-Dz-209" value="188" style="whiteSpace=wrap;html=1;aspect=fixed;fontSize=16;fillColor=#fff2cc;strokeColor=#d6b656;" vertex="1" parent="1">
          <mxGeometry x="920" y="141" width="39" height="39" as="geometry" />
        </mxCell>
        <mxCell id="tFzAAHaU8S95K_Trg-Dz-226" value="187" style="whiteSpace=wrap;html=1;aspect=fixed;fontSize=16;fillColor=#1ba1e2;fontColor=#ffffff;strokeColor=#006EAF;" vertex="1" parent="1">
          <mxGeometry x="959" y="141" width="39" height="39" as="geometry" />
        </mxCell>
        <mxCell id="tFzAAHaU8S95K_Trg-Dz-227" value="186" style="whiteSpace=wrap;html=1;aspect=fixed;fontSize=16;fillColor=#1ba1e2;fontColor=#ffffff;strokeColor=#006EAF;" vertex="1" parent="1">
          <mxGeometry x="998" y="141" width="39" height="39" as="geometry" />
        </mxCell>
        <mxCell id="tFzAAHaU8S95K_Trg-Dz-228" value="&lt;div&gt;188&lt;/div&gt;" style="whiteSpace=wrap;html=1;aspect=fixed;fontSize=16;fillColor=#1ba1e2;fontColor=#ffffff;strokeColor=#006EAF;" vertex="1" parent="1">
          <mxGeometry x="1037" y="141" width="39" height="39" as="geometry" />
        </mxCell>
        <mxCell id="tFzAAHaU8S95K_Trg-Dz-229" value="0" style="whiteSpace=wrap;html=1;aspect=fixed;fontSize=16;fillColor=#fff2cc;strokeColor=#d6b656;" vertex="1" parent="1">
          <mxGeometry x="920" y="180" width="39" height="39" as="geometry" />
        </mxCell>
        <mxCell id="tFzAAHaU8S95K_Trg-Dz-230" value="0" style="whiteSpace=wrap;html=1;aspect=fixed;fontSize=16;" vertex="1" parent="1">
          <mxGeometry x="959" y="180" width="39" height="39" as="geometry" />
        </mxCell>
        <mxCell id="tFzAAHaU8S95K_Trg-Dz-231" value="0" style="whiteSpace=wrap;html=1;aspect=fixed;fontSize=16;" vertex="1" parent="1">
          <mxGeometry x="998" y="180" width="39" height="39" as="geometry" />
        </mxCell>
        <mxCell id="tFzAAHaU8S95K_Trg-Dz-232" value="166" style="whiteSpace=wrap;html=1;aspect=fixed;fontSize=16;" vertex="1" parent="1">
          <mxGeometry x="1037" y="180" width="39" height="39" as="geometry" />
        </mxCell>
        <mxCell id="tFzAAHaU8S95K_Trg-Dz-233" value="0" style="whiteSpace=wrap;html=1;aspect=fixed;fontSize=16;fillColor=#fff2cc;strokeColor=#d6b656;" vertex="1" parent="1">
          <mxGeometry x="920" y="217.5" width="39" height="39" as="geometry" />
        </mxCell>
        <mxCell id="tFzAAHaU8S95K_Trg-Dz-234" value="237" style="whiteSpace=wrap;html=1;aspect=fixed;fontSize=16;fillColor=#e51400;fontColor=#ffffff;strokeColor=#B20000;" vertex="1" parent="1">
          <mxGeometry x="959" y="217.5" width="39" height="39" as="geometry" />
        </mxCell>
        <mxCell id="tFzAAHaU8S95K_Trg-Dz-235" value="187" style="whiteSpace=wrap;html=1;aspect=fixed;fontSize=16;fillColor=#1ba1e2;fontColor=#ffffff;strokeColor=#006EAF;" vertex="1" parent="1">
          <mxGeometry x="998" y="217.5" width="39" height="39" as="geometry" />
        </mxCell>
        <mxCell id="tFzAAHaU8S95K_Trg-Dz-236" value="199" style="whiteSpace=wrap;html=1;aspect=fixed;fontSize=16;fillColor=#1ba1e2;fontColor=#ffffff;strokeColor=#006EAF;" vertex="1" parent="1">
          <mxGeometry x="1037" y="217.5" width="39" height="39" as="geometry" />
        </mxCell>
        <mxCell id="tFzAAHaU8S95K_Trg-Dz-237" value="0" style="whiteSpace=wrap;html=1;aspect=fixed;fontSize=16;fillColor=#fff2cc;strokeColor=#d6b656;" vertex="1" parent="1">
          <mxGeometry x="920" y="256.5" width="39" height="39" as="geometry" />
        </mxCell>
        <mxCell id="tFzAAHaU8S95K_Trg-Dz-238" value="122" style="whiteSpace=wrap;html=1;aspect=fixed;fontSize=16;fillColor=#fff2cc;strokeColor=#d6b656;" vertex="1" parent="1">
          <mxGeometry x="959" y="256.5" width="39" height="39" as="geometry" />
        </mxCell>
        <mxCell id="tFzAAHaU8S95K_Trg-Dz-239" value="125" style="whiteSpace=wrap;html=1;aspect=fixed;fontSize=16;fillColor=#fff2cc;strokeColor=#d6b656;" vertex="1" parent="1">
          <mxGeometry x="998" y="256.5" width="39" height="39" as="geometry" />
        </mxCell>
        <mxCell id="tFzAAHaU8S95K_Trg-Dz-240" value="143" style="whiteSpace=wrap;html=1;aspect=fixed;fontSize=16;fillColor=#fff2cc;strokeColor=#d6b656;" vertex="1" parent="1">
          <mxGeometry x="1037" y="256.5" width="39" height="39" as="geometry" />
        </mxCell>
        <mxCell id="tFzAAHaU8S95K_Trg-Dz-241" value="0" style="whiteSpace=wrap;html=1;aspect=fixed;fontSize=16;fillColor=#fff2cc;strokeColor=#d6b656;" vertex="1" parent="1">
          <mxGeometry x="920" y="102" width="39" height="39" as="geometry" />
        </mxCell>
        <mxCell id="tFzAAHaU8S95K_Trg-Dz-242" value="0" style="whiteSpace=wrap;html=1;aspect=fixed;fontSize=16;fillColor=#fff2cc;strokeColor=#d6b656;" vertex="1" parent="1">
          <mxGeometry x="959" y="102" width="39" height="39" as="geometry" />
        </mxCell>
        <mxCell id="tFzAAHaU8S95K_Trg-Dz-243" value="0" style="whiteSpace=wrap;html=1;aspect=fixed;fontSize=16;fillColor=#fff2cc;strokeColor=#d6b656;" vertex="1" parent="1">
          <mxGeometry x="998" y="102" width="39" height="39" as="geometry" />
        </mxCell>
        <mxCell id="tFzAAHaU8S95K_Trg-Dz-244" value="0" style="whiteSpace=wrap;html=1;aspect=fixed;fontSize=16;fillColor=#fff2cc;strokeColor=#d6b656;" vertex="1" parent="1">
          <mxGeometry x="1037" y="102" width="39" height="39" as="geometry" />
        </mxCell>
        <mxCell id="tFzAAHaU8S95K_Trg-Dz-250" value="199" style="whiteSpace=wrap;html=1;aspect=fixed;fontSize=16;fillColor=#fff2cc;strokeColor=#d6b656;" vertex="1" parent="1">
          <mxGeometry x="1076" y="141" width="39" height="39" as="geometry" />
        </mxCell>
        <mxCell id="tFzAAHaU8S95K_Trg-Dz-251" value="166" style="whiteSpace=wrap;html=1;aspect=fixed;fontSize=16;fillColor=#fff2cc;strokeColor=#d6b656;" vertex="1" parent="1">
          <mxGeometry x="1076" y="180" width="39" height="39" as="geometry" />
        </mxCell>
        <mxCell id="tFzAAHaU8S95K_Trg-Dz-252" value="199" style="whiteSpace=wrap;html=1;aspect=fixed;fontSize=16;fillColor=#fff2cc;strokeColor=#d6b656;" vertex="1" parent="1">
          <mxGeometry x="1076" y="217.5" width="39" height="39" as="geometry" />
        </mxCell>
        <mxCell id="tFzAAHaU8S95K_Trg-Dz-253" value="188" style="whiteSpace=wrap;html=1;aspect=fixed;fontSize=16;fillColor=#fff2cc;strokeColor=#d6b656;" vertex="1" parent="1">
          <mxGeometry x="1076" y="256.5" width="39" height="39" as="geometry" />
        </mxCell>
        <mxCell id="tFzAAHaU8S95K_Trg-Dz-254" value="78" style="whiteSpace=wrap;html=1;aspect=fixed;fontSize=16;fillColor=#fff2cc;strokeColor=#d6b656;" vertex="1" parent="1">
          <mxGeometry x="1076" y="102" width="39" height="39" as="geometry" />
        </mxCell>
        <mxCell id="tFzAAHaU8S95K_Trg-Dz-260" value="-1" style="whiteSpace=wrap;html=1;aspect=fixed;fontSize=16;fillColor=#fff2cc;strokeColor=#d6b656;" vertex="1" parent="1">
          <mxGeometry x="1215" y="141" width="39" height="39" as="geometry" />
        </mxCell>
        <mxCell id="tFzAAHaU8S95K_Trg-Dz-261" value="-1" style="whiteSpace=wrap;html=1;aspect=fixed;fontSize=16;fillColor=#1ba1e2;fontColor=#ffffff;strokeColor=#006EAF;" vertex="1" parent="1">
          <mxGeometry x="1254" y="141" width="39" height="39" as="geometry" />
        </mxCell>
        <mxCell id="tFzAAHaU8S95K_Trg-Dz-262" value="-1" style="whiteSpace=wrap;html=1;aspect=fixed;fontSize=16;fillColor=#1ba1e2;fontColor=#ffffff;strokeColor=#006EAF;" vertex="1" parent="1">
          <mxGeometry x="1293" y="141" width="39" height="39" as="geometry" />
        </mxCell>
        <mxCell id="tFzAAHaU8S95K_Trg-Dz-263" value="-1" style="whiteSpace=wrap;html=1;aspect=fixed;fontSize=16;fillColor=#1ba1e2;fontColor=#ffffff;strokeColor=#006EAF;" vertex="1" parent="1">
          <mxGeometry x="1332" y="141" width="39" height="39" as="geometry" />
        </mxCell>
        <mxCell id="tFzAAHaU8S95K_Trg-Dz-264" value="0" style="whiteSpace=wrap;html=1;aspect=fixed;fontSize=16;fillColor=#fff2cc;strokeColor=#d6b656;" vertex="1" parent="1">
          <mxGeometry x="1215" y="180" width="39" height="39" as="geometry" />
        </mxCell>
        <mxCell id="tFzAAHaU8S95K_Trg-Dz-265" value="0" style="whiteSpace=wrap;html=1;aspect=fixed;fontSize=16;" vertex="1" parent="1">
          <mxGeometry x="1254" y="180" width="39" height="39" as="geometry" />
        </mxCell>
        <mxCell id="tFzAAHaU8S95K_Trg-Dz-266" value="0" style="whiteSpace=wrap;html=1;aspect=fixed;fontSize=16;" vertex="1" parent="1">
          <mxGeometry x="1293" y="180" width="39" height="39" as="geometry" />
        </mxCell>
        <mxCell id="tFzAAHaU8S95K_Trg-Dz-267" value="0" style="whiteSpace=wrap;html=1;aspect=fixed;fontSize=16;" vertex="1" parent="1">
          <mxGeometry x="1332" y="180" width="39" height="39" as="geometry" />
        </mxCell>
        <mxCell id="tFzAAHaU8S95K_Trg-Dz-268" value="0" style="whiteSpace=wrap;html=1;aspect=fixed;fontSize=16;fillColor=#fff2cc;strokeColor=#d6b656;" vertex="1" parent="1">
          <mxGeometry x="1215" y="217.5" width="39" height="39" as="geometry" />
        </mxCell>
        <mxCell id="tFzAAHaU8S95K_Trg-Dz-269" value="-2" style="whiteSpace=wrap;html=1;aspect=fixed;fontSize=16;fillColor=#e51400;fontColor=#ffffff;strokeColor=#B20000;" vertex="1" parent="1">
          <mxGeometry x="1254" y="217.5" width="39" height="39" as="geometry" />
        </mxCell>
        <mxCell id="tFzAAHaU8S95K_Trg-Dz-270" value="-1" style="whiteSpace=wrap;html=1;aspect=fixed;fontSize=16;fillColor=#1ba1e2;fontColor=#ffffff;strokeColor=#006EAF;" vertex="1" parent="1">
          <mxGeometry x="1293" y="217.5" width="39" height="39" as="geometry" />
        </mxCell>
        <mxCell id="tFzAAHaU8S95K_Trg-Dz-271" value="-1" style="whiteSpace=wrap;html=1;aspect=fixed;fontSize=16;fillColor=#1ba1e2;fontColor=#ffffff;strokeColor=#006EAF;" vertex="1" parent="1">
          <mxGeometry x="1332" y="217.5" width="39" height="39" as="geometry" />
        </mxCell>
        <mxCell id="tFzAAHaU8S95K_Trg-Dz-272" value="0" style="whiteSpace=wrap;html=1;aspect=fixed;fontSize=16;fillColor=#fff2cc;strokeColor=#d6b656;" vertex="1" parent="1">
          <mxGeometry x="1215" y="256.5" width="39" height="39" as="geometry" />
        </mxCell>
        <mxCell id="tFzAAHaU8S95K_Trg-Dz-273" value="0" style="whiteSpace=wrap;html=1;aspect=fixed;fontSize=16;fillColor=#fff2cc;strokeColor=#d6b656;" vertex="1" parent="1">
          <mxGeometry x="1254" y="256.5" width="39" height="39" as="geometry" />
        </mxCell>
        <mxCell id="tFzAAHaU8S95K_Trg-Dz-274" value="0" style="whiteSpace=wrap;html=1;aspect=fixed;fontSize=16;fillColor=#fff2cc;strokeColor=#d6b656;" vertex="1" parent="1">
          <mxGeometry x="1293" y="256.5" width="39" height="39" as="geometry" />
        </mxCell>
        <mxCell id="tFzAAHaU8S95K_Trg-Dz-275" value="0" style="whiteSpace=wrap;html=1;aspect=fixed;fontSize=16;fillColor=#fff2cc;strokeColor=#d6b656;" vertex="1" parent="1">
          <mxGeometry x="1332" y="256.5" width="39" height="39" as="geometry" />
        </mxCell>
        <mxCell id="tFzAAHaU8S95K_Trg-Dz-276" value="0" style="whiteSpace=wrap;html=1;aspect=fixed;fontSize=16;fillColor=#fff2cc;strokeColor=#d6b656;" vertex="1" parent="1">
          <mxGeometry x="1215" y="102" width="39" height="39" as="geometry" />
        </mxCell>
        <mxCell id="tFzAAHaU8S95K_Trg-Dz-277" value="0" style="whiteSpace=wrap;html=1;aspect=fixed;fontSize=16;fillColor=#fff2cc;strokeColor=#d6b656;" vertex="1" parent="1">
          <mxGeometry x="1254" y="102" width="39" height="39" as="geometry" />
        </mxCell>
        <mxCell id="tFzAAHaU8S95K_Trg-Dz-278" value="0" style="whiteSpace=wrap;html=1;aspect=fixed;fontSize=16;fillColor=#fff2cc;strokeColor=#d6b656;" vertex="1" parent="1">
          <mxGeometry x="1293" y="102" width="39" height="39" as="geometry" />
        </mxCell>
        <mxCell id="tFzAAHaU8S95K_Trg-Dz-279" value="0" style="whiteSpace=wrap;html=1;aspect=fixed;fontSize=16;fillColor=#fff2cc;strokeColor=#d6b656;" vertex="1" parent="1">
          <mxGeometry x="1332" y="102" width="39" height="39" as="geometry" />
        </mxCell>
        <mxCell id="tFzAAHaU8S95K_Trg-Dz-280" value="-1" style="whiteSpace=wrap;html=1;aspect=fixed;fontSize=16;fillColor=#fff2cc;strokeColor=#d6b656;" vertex="1" parent="1">
          <mxGeometry x="1371" y="141" width="39" height="39" as="geometry" />
        </mxCell>
        <mxCell id="tFzAAHaU8S95K_Trg-Dz-281" value="0" style="whiteSpace=wrap;html=1;aspect=fixed;fontSize=16;fillColor=#fff2cc;strokeColor=#d6b656;" vertex="1" parent="1">
          <mxGeometry x="1371" y="180" width="39" height="39" as="geometry" />
        </mxCell>
        <mxCell id="tFzAAHaU8S95K_Trg-Dz-282" value="-1" style="whiteSpace=wrap;html=1;aspect=fixed;fontSize=16;fillColor=#fff2cc;strokeColor=#d6b656;" vertex="1" parent="1">
          <mxGeometry x="1371" y="217.5" width="39" height="39" as="geometry" />
        </mxCell>
        <mxCell id="tFzAAHaU8S95K_Trg-Dz-283" value="-1" style="whiteSpace=wrap;html=1;aspect=fixed;fontSize=16;fillColor=#fff2cc;strokeColor=#d6b656;" vertex="1" parent="1">
          <mxGeometry x="1371" y="256.5" width="39" height="39" as="geometry" />
        </mxCell>
        <mxCell id="tFzAAHaU8S95K_Trg-Dz-284" value="0" style="whiteSpace=wrap;html=1;aspect=fixed;fontSize=16;fillColor=#fff2cc;strokeColor=#d6b656;" vertex="1" parent="1">
          <mxGeometry x="1371" y="102" width="39" height="39" as="geometry" />
        </mxCell>
        <mxCell id="tFzAAHaU8S95K_Trg-Dz-285" value="" style="endArrow=classic;html=1;rounded=0;exitX=1;exitY=0.5;exitDx=0;exitDy=0;entryX=0;entryY=0.5;entryDx=0;entryDy=0;" edge="1" parent="1" source="tFzAAHaU8S95K_Trg-Dz-251" target="tFzAAHaU8S95K_Trg-Dz-264">
          <mxGeometry width="50" height="50" relative="1" as="geometry">
            <mxPoint x="1125" y="274" as="sourcePoint" />
            <mxPoint x="1175" y="224" as="targetPoint" />
          </mxGeometry>
        </mxCell>
        <mxCell id="tFzAAHaU8S95K_Trg-Dz-286" value="-1" style="whiteSpace=wrap;html=1;aspect=fixed;fontSize=16;fillColor=#fff2cc;strokeColor=#d6b656;" vertex="1" parent="1">
          <mxGeometry x="920" y="389.5" width="39" height="39" as="geometry" />
        </mxCell>
        <mxCell id="tFzAAHaU8S95K_Trg-Dz-287" value="-1" style="whiteSpace=wrap;html=1;aspect=fixed;fontSize=16;fillColor=#1ba1e2;fontColor=#ffffff;strokeColor=#006EAF;" vertex="1" parent="1">
          <mxGeometry x="959" y="389.5" width="39" height="39" as="geometry" />
        </mxCell>
        <mxCell id="tFzAAHaU8S95K_Trg-Dz-288" value="-1" style="whiteSpace=wrap;html=1;aspect=fixed;fontSize=16;fillColor=#1ba1e2;fontColor=#ffffff;strokeColor=#006EAF;" vertex="1" parent="1">
          <mxGeometry x="998" y="389.5" width="39" height="39" as="geometry" />
        </mxCell>
        <mxCell id="tFzAAHaU8S95K_Trg-Dz-289" value="-1" style="whiteSpace=wrap;html=1;aspect=fixed;fontSize=16;fillColor=#1ba1e2;fontColor=#ffffff;strokeColor=#006EAF;" vertex="1" parent="1">
          <mxGeometry x="1037" y="389.5" width="39" height="39" as="geometry" />
        </mxCell>
        <mxCell id="tFzAAHaU8S95K_Trg-Dz-290" value="0" style="whiteSpace=wrap;html=1;aspect=fixed;fontSize=16;fillColor=#fff2cc;strokeColor=#d6b656;" vertex="1" parent="1">
          <mxGeometry x="920" y="428.5" width="39" height="39" as="geometry" />
        </mxCell>
        <mxCell id="tFzAAHaU8S95K_Trg-Dz-291" value="0" style="whiteSpace=wrap;html=1;aspect=fixed;fontSize=16;" vertex="1" parent="1">
          <mxGeometry x="959" y="428.5" width="39" height="39" as="geometry" />
        </mxCell>
        <mxCell id="tFzAAHaU8S95K_Trg-Dz-292" value="0" style="whiteSpace=wrap;html=1;aspect=fixed;fontSize=16;" vertex="1" parent="1">
          <mxGeometry x="998" y="428.5" width="39" height="39" as="geometry" />
        </mxCell>
        <mxCell id="tFzAAHaU8S95K_Trg-Dz-293" value="0" style="whiteSpace=wrap;html=1;aspect=fixed;fontSize=16;" vertex="1" parent="1">
          <mxGeometry x="1037" y="428.5" width="39" height="39" as="geometry" />
        </mxCell>
        <mxCell id="tFzAAHaU8S95K_Trg-Dz-294" value="0" style="whiteSpace=wrap;html=1;aspect=fixed;fontSize=16;fillColor=#fff2cc;strokeColor=#d6b656;" vertex="1" parent="1">
          <mxGeometry x="920" y="466" width="39" height="39" as="geometry" />
        </mxCell>
        <mxCell id="tFzAAHaU8S95K_Trg-Dz-295" value="-2" style="whiteSpace=wrap;html=1;aspect=fixed;fontSize=16;fillColor=#e51400;fontColor=#ffffff;strokeColor=#B20000;" vertex="1" parent="1">
          <mxGeometry x="959" y="466" width="39" height="39" as="geometry" />
        </mxCell>
        <mxCell id="tFzAAHaU8S95K_Trg-Dz-296" value="-1" style="whiteSpace=wrap;html=1;aspect=fixed;fontSize=16;fillColor=#1ba1e2;fontColor=#ffffff;strokeColor=#006EAF;" vertex="1" parent="1">
          <mxGeometry x="998" y="466" width="39" height="39" as="geometry" />
        </mxCell>
        <mxCell id="tFzAAHaU8S95K_Trg-Dz-297" value="-1" style="whiteSpace=wrap;html=1;aspect=fixed;fontSize=16;fillColor=#1ba1e2;fontColor=#ffffff;strokeColor=#006EAF;" vertex="1" parent="1">
          <mxGeometry x="1037" y="466" width="39" height="39" as="geometry" />
        </mxCell>
        <mxCell id="tFzAAHaU8S95K_Trg-Dz-298" value="0" style="whiteSpace=wrap;html=1;aspect=fixed;fontSize=16;fillColor=#fff2cc;strokeColor=#d6b656;" vertex="1" parent="1">
          <mxGeometry x="920" y="505" width="39" height="39" as="geometry" />
        </mxCell>
        <mxCell id="tFzAAHaU8S95K_Trg-Dz-299" value="0" style="whiteSpace=wrap;html=1;aspect=fixed;fontSize=16;fillColor=#fff2cc;strokeColor=#d6b656;" vertex="1" parent="1">
          <mxGeometry x="959" y="505" width="39" height="39" as="geometry" />
        </mxCell>
        <mxCell id="tFzAAHaU8S95K_Trg-Dz-300" value="0" style="whiteSpace=wrap;html=1;aspect=fixed;fontSize=16;fillColor=#fff2cc;strokeColor=#d6b656;" vertex="1" parent="1">
          <mxGeometry x="998" y="505" width="39" height="39" as="geometry" />
        </mxCell>
        <mxCell id="tFzAAHaU8S95K_Trg-Dz-301" value="0" style="whiteSpace=wrap;html=1;aspect=fixed;fontSize=16;fillColor=#fff2cc;strokeColor=#d6b656;" vertex="1" parent="1">
          <mxGeometry x="1037" y="505" width="39" height="39" as="geometry" />
        </mxCell>
        <mxCell id="tFzAAHaU8S95K_Trg-Dz-302" value="0" style="whiteSpace=wrap;html=1;aspect=fixed;fontSize=16;fillColor=#fff2cc;strokeColor=#d6b656;" vertex="1" parent="1">
          <mxGeometry x="920" y="350.5" width="39" height="39" as="geometry" />
        </mxCell>
        <mxCell id="tFzAAHaU8S95K_Trg-Dz-303" value="0" style="whiteSpace=wrap;html=1;aspect=fixed;fontSize=16;fillColor=#fff2cc;strokeColor=#d6b656;" vertex="1" parent="1">
          <mxGeometry x="959" y="350.5" width="39" height="39" as="geometry" />
        </mxCell>
        <mxCell id="tFzAAHaU8S95K_Trg-Dz-304" value="0" style="whiteSpace=wrap;html=1;aspect=fixed;fontSize=16;fillColor=#fff2cc;strokeColor=#d6b656;" vertex="1" parent="1">
          <mxGeometry x="998" y="350.5" width="39" height="39" as="geometry" />
        </mxCell>
        <mxCell id="tFzAAHaU8S95K_Trg-Dz-305" value="0" style="whiteSpace=wrap;html=1;aspect=fixed;fontSize=16;fillColor=#fff2cc;strokeColor=#d6b656;" vertex="1" parent="1">
          <mxGeometry x="1037" y="350.5" width="39" height="39" as="geometry" />
        </mxCell>
        <mxCell id="tFzAAHaU8S95K_Trg-Dz-306" value="-1" style="whiteSpace=wrap;html=1;aspect=fixed;fontSize=16;fillColor=#fff2cc;strokeColor=#d6b656;" vertex="1" parent="1">
          <mxGeometry x="1076" y="389.5" width="39" height="39" as="geometry" />
        </mxCell>
        <mxCell id="tFzAAHaU8S95K_Trg-Dz-307" value="0" style="whiteSpace=wrap;html=1;aspect=fixed;fontSize=16;fillColor=#fff2cc;strokeColor=#d6b656;" vertex="1" parent="1">
          <mxGeometry x="1076" y="428.5" width="39" height="39" as="geometry" />
        </mxCell>
        <mxCell id="tFzAAHaU8S95K_Trg-Dz-308" value="-1" style="whiteSpace=wrap;html=1;aspect=fixed;fontSize=16;fillColor=#fff2cc;strokeColor=#d6b656;" vertex="1" parent="1">
          <mxGeometry x="1076" y="466" width="39" height="39" as="geometry" />
        </mxCell>
        <mxCell id="tFzAAHaU8S95K_Trg-Dz-309" value="-1" style="whiteSpace=wrap;html=1;aspect=fixed;fontSize=16;fillColor=#fff2cc;strokeColor=#d6b656;" vertex="1" parent="1">
          <mxGeometry x="1076" y="505" width="39" height="39" as="geometry" />
        </mxCell>
        <mxCell id="tFzAAHaU8S95K_Trg-Dz-310" value="0" style="whiteSpace=wrap;html=1;aspect=fixed;fontSize=16;fillColor=#fff2cc;strokeColor=#d6b656;" vertex="1" parent="1">
          <mxGeometry x="1076" y="350.5" width="39" height="39" as="geometry" />
        </mxCell>
        <mxCell id="tFzAAHaU8S95K_Trg-Dz-311" value="-1" style="whiteSpace=wrap;html=1;aspect=fixed;fontSize=16;fillColor=#fff2cc;strokeColor=#d6b656;" vertex="1" parent="1">
          <mxGeometry x="1215" y="390.25" width="39" height="39" as="geometry" />
        </mxCell>
        <mxCell id="tFzAAHaU8S95K_Trg-Dz-312" value="-1" style="whiteSpace=wrap;html=1;aspect=fixed;fontSize=16;fillColor=#1ba1e2;fontColor=#ffffff;strokeColor=#006EAF;" vertex="1" parent="1">
          <mxGeometry x="1254" y="390.25" width="39" height="39" as="geometry" />
        </mxCell>
        <mxCell id="tFzAAHaU8S95K_Trg-Dz-313" value="-1" style="whiteSpace=wrap;html=1;aspect=fixed;fontSize=16;fillColor=#1ba1e2;fontColor=#ffffff;strokeColor=#006EAF;" vertex="1" parent="1">
          <mxGeometry x="1293" y="390.25" width="39" height="39" as="geometry" />
        </mxCell>
        <mxCell id="tFzAAHaU8S95K_Trg-Dz-314" value="-1" style="whiteSpace=wrap;html=1;aspect=fixed;fontSize=16;fillColor=#1ba1e2;fontColor=#ffffff;strokeColor=#006EAF;" vertex="1" parent="1">
          <mxGeometry x="1332" y="390.25" width="39" height="39" as="geometry" />
        </mxCell>
        <mxCell id="tFzAAHaU8S95K_Trg-Dz-315" value="0" style="whiteSpace=wrap;html=1;aspect=fixed;fontSize=16;fillColor=#fff2cc;strokeColor=#d6b656;" vertex="1" parent="1">
          <mxGeometry x="1215" y="429.25" width="39" height="39" as="geometry" />
        </mxCell>
        <mxCell id="tFzAAHaU8S95K_Trg-Dz-316" value="0" style="whiteSpace=wrap;html=1;aspect=fixed;fontSize=16;" vertex="1" parent="1">
          <mxGeometry x="1254" y="429.25" width="39" height="39" as="geometry" />
        </mxCell>
        <mxCell id="tFzAAHaU8S95K_Trg-Dz-317" value="0" style="whiteSpace=wrap;html=1;aspect=fixed;fontSize=16;" vertex="1" parent="1">
          <mxGeometry x="1293" y="429.25" width="39" height="39" as="geometry" />
        </mxCell>
        <mxCell id="tFzAAHaU8S95K_Trg-Dz-318" value="0" style="whiteSpace=wrap;html=1;aspect=fixed;fontSize=16;" vertex="1" parent="1">
          <mxGeometry x="1332" y="429.25" width="39" height="39" as="geometry" />
        </mxCell>
        <mxCell id="tFzAAHaU8S95K_Trg-Dz-319" value="0" style="whiteSpace=wrap;html=1;aspect=fixed;fontSize=16;fillColor=#fff2cc;strokeColor=#d6b656;" vertex="1" parent="1">
          <mxGeometry x="1215" y="466.75" width="39" height="39" as="geometry" />
        </mxCell>
        <mxCell id="tFzAAHaU8S95K_Trg-Dz-320" value="-2" style="whiteSpace=wrap;html=1;aspect=fixed;fontSize=16;fillColor=#e51400;fontColor=#ffffff;strokeColor=#B20000;" vertex="1" parent="1">
          <mxGeometry x="1254" y="466.75" width="39" height="39" as="geometry" />
        </mxCell>
        <mxCell id="tFzAAHaU8S95K_Trg-Dz-321" value="-1" style="whiteSpace=wrap;html=1;aspect=fixed;fontSize=16;fillColor=#e51400;fontColor=#ffffff;strokeColor=#B20000;" vertex="1" parent="1">
          <mxGeometry x="1293" y="466.75" width="39" height="39" as="geometry" />
        </mxCell>
        <mxCell id="tFzAAHaU8S95K_Trg-Dz-322" value="-1" style="whiteSpace=wrap;html=1;aspect=fixed;fontSize=16;fillColor=#e51400;fontColor=#ffffff;strokeColor=#B20000;" vertex="1" parent="1">
          <mxGeometry x="1332" y="466.75" width="39" height="39" as="geometry" />
        </mxCell>
        <mxCell id="tFzAAHaU8S95K_Trg-Dz-323" value="0" style="whiteSpace=wrap;html=1;aspect=fixed;fontSize=16;fillColor=#fff2cc;strokeColor=#d6b656;" vertex="1" parent="1">
          <mxGeometry x="1215" y="505.75" width="39" height="39" as="geometry" />
        </mxCell>
        <mxCell id="tFzAAHaU8S95K_Trg-Dz-324" value="0" style="whiteSpace=wrap;html=1;aspect=fixed;fontSize=16;fillColor=#fff2cc;strokeColor=#d6b656;" vertex="1" parent="1">
          <mxGeometry x="1254" y="505.75" width="39" height="39" as="geometry" />
        </mxCell>
        <mxCell id="tFzAAHaU8S95K_Trg-Dz-325" value="0" style="whiteSpace=wrap;html=1;aspect=fixed;fontSize=16;fillColor=#fff2cc;strokeColor=#d6b656;" vertex="1" parent="1">
          <mxGeometry x="1293" y="505.75" width="39" height="39" as="geometry" />
        </mxCell>
        <mxCell id="tFzAAHaU8S95K_Trg-Dz-326" value="0" style="whiteSpace=wrap;html=1;aspect=fixed;fontSize=16;fillColor=#fff2cc;strokeColor=#d6b656;" vertex="1" parent="1">
          <mxGeometry x="1332" y="505.75" width="39" height="39" as="geometry" />
        </mxCell>
        <mxCell id="tFzAAHaU8S95K_Trg-Dz-327" value="0" style="whiteSpace=wrap;html=1;aspect=fixed;fontSize=16;fillColor=#fff2cc;strokeColor=#d6b656;" vertex="1" parent="1">
          <mxGeometry x="1215" y="351.25" width="39" height="39" as="geometry" />
        </mxCell>
        <mxCell id="tFzAAHaU8S95K_Trg-Dz-328" value="0" style="whiteSpace=wrap;html=1;aspect=fixed;fontSize=16;fillColor=#fff2cc;strokeColor=#d6b656;" vertex="1" parent="1">
          <mxGeometry x="1254" y="351.25" width="39" height="39" as="geometry" />
        </mxCell>
        <mxCell id="tFzAAHaU8S95K_Trg-Dz-329" value="0" style="whiteSpace=wrap;html=1;aspect=fixed;fontSize=16;fillColor=#fff2cc;strokeColor=#d6b656;" vertex="1" parent="1">
          <mxGeometry x="1293" y="351.25" width="39" height="39" as="geometry" />
        </mxCell>
        <mxCell id="tFzAAHaU8S95K_Trg-Dz-330" value="0" style="whiteSpace=wrap;html=1;aspect=fixed;fontSize=16;fillColor=#fff2cc;strokeColor=#d6b656;" vertex="1" parent="1">
          <mxGeometry x="1332" y="351.25" width="39" height="39" as="geometry" />
        </mxCell>
        <mxCell id="tFzAAHaU8S95K_Trg-Dz-331" value="-1" style="whiteSpace=wrap;html=1;aspect=fixed;fontSize=16;fillColor=#fff2cc;strokeColor=#d6b656;" vertex="1" parent="1">
          <mxGeometry x="1371" y="390.25" width="39" height="39" as="geometry" />
        </mxCell>
        <mxCell id="tFzAAHaU8S95K_Trg-Dz-332" value="0" style="whiteSpace=wrap;html=1;aspect=fixed;fontSize=16;fillColor=#fff2cc;strokeColor=#d6b656;" vertex="1" parent="1">
          <mxGeometry x="1371" y="429.25" width="39" height="39" as="geometry" />
        </mxCell>
        <mxCell id="tFzAAHaU8S95K_Trg-Dz-333" value="-1" style="whiteSpace=wrap;html=1;aspect=fixed;fontSize=16;fillColor=#fff2cc;strokeColor=#d6b656;" vertex="1" parent="1">
          <mxGeometry x="1371" y="466.75" width="39" height="39" as="geometry" />
        </mxCell>
        <mxCell id="tFzAAHaU8S95K_Trg-Dz-334" value="-1" style="whiteSpace=wrap;html=1;aspect=fixed;fontSize=16;fillColor=#fff2cc;strokeColor=#d6b656;" vertex="1" parent="1">
          <mxGeometry x="1371" y="505.75" width="39" height="39" as="geometry" />
        </mxCell>
        <mxCell id="tFzAAHaU8S95K_Trg-Dz-335" value="0" style="whiteSpace=wrap;html=1;aspect=fixed;fontSize=16;fillColor=#fff2cc;strokeColor=#d6b656;" vertex="1" parent="1">
          <mxGeometry x="1371" y="351.25" width="39" height="39" as="geometry" />
        </mxCell>
        <mxCell id="tFzAAHaU8S95K_Trg-Dz-336" value="" style="endArrow=classic;html=1;rounded=0;exitX=1;exitY=0.5;exitDx=0;exitDy=0;entryX=0;entryY=0.5;entryDx=0;entryDy=0;" edge="1" parent="1" source="tFzAAHaU8S95K_Trg-Dz-307" target="tFzAAHaU8S95K_Trg-Dz-315">
          <mxGeometry width="50" height="50" relative="1" as="geometry">
            <mxPoint x="1125" y="210" as="sourcePoint" />
            <mxPoint x="1190" y="475" as="targetPoint" />
          </mxGeometry>
        </mxCell>
        <mxCell id="tFzAAHaU8S95K_Trg-Dz-339" value="-1" style="whiteSpace=wrap;html=1;aspect=fixed;fontSize=16;fillColor=#fff2cc;strokeColor=#d6b656;" vertex="1" parent="1">
          <mxGeometry x="1026" y="664.75" width="39" height="39" as="geometry" />
        </mxCell>
        <mxCell id="tFzAAHaU8S95K_Trg-Dz-340" value="-1" style="whiteSpace=wrap;html=1;aspect=fixed;fontSize=16;fillColor=#1ba1e2;fontColor=#ffffff;strokeColor=#006EAF;" vertex="1" parent="1">
          <mxGeometry x="1065" y="664.75" width="39" height="39" as="geometry" />
        </mxCell>
        <mxCell id="tFzAAHaU8S95K_Trg-Dz-341" value="-1" style="whiteSpace=wrap;html=1;aspect=fixed;fontSize=16;fillColor=#1ba1e2;fontColor=#ffffff;strokeColor=#006EAF;" vertex="1" parent="1">
          <mxGeometry x="1104" y="664.75" width="39" height="39" as="geometry" />
        </mxCell>
        <mxCell id="tFzAAHaU8S95K_Trg-Dz-342" value="-1" style="whiteSpace=wrap;html=1;aspect=fixed;fontSize=16;fillColor=#1ba1e2;fontColor=#ffffff;strokeColor=#006EAF;" vertex="1" parent="1">
          <mxGeometry x="1143" y="664.75" width="39" height="39" as="geometry" />
        </mxCell>
        <mxCell id="tFzAAHaU8S95K_Trg-Dz-343" value="0" style="whiteSpace=wrap;html=1;aspect=fixed;fontSize=16;fillColor=#fff2cc;strokeColor=#d6b656;" vertex="1" parent="1">
          <mxGeometry x="1026" y="703.75" width="39" height="39" as="geometry" />
        </mxCell>
        <mxCell id="tFzAAHaU8S95K_Trg-Dz-344" value="0" style="whiteSpace=wrap;html=1;aspect=fixed;fontSize=16;" vertex="1" parent="1">
          <mxGeometry x="1065" y="703.75" width="39" height="39" as="geometry" />
        </mxCell>
        <mxCell id="tFzAAHaU8S95K_Trg-Dz-345" value="0" style="whiteSpace=wrap;html=1;aspect=fixed;fontSize=16;" vertex="1" parent="1">
          <mxGeometry x="1104" y="703.75" width="39" height="39" as="geometry" />
        </mxCell>
        <mxCell id="tFzAAHaU8S95K_Trg-Dz-346" value="0" style="whiteSpace=wrap;html=1;aspect=fixed;fontSize=16;" vertex="1" parent="1">
          <mxGeometry x="1143" y="703.75" width="39" height="39" as="geometry" />
        </mxCell>
        <mxCell id="tFzAAHaU8S95K_Trg-Dz-347" value="0" style="whiteSpace=wrap;html=1;aspect=fixed;fontSize=16;fillColor=#fff2cc;strokeColor=#d6b656;" vertex="1" parent="1">
          <mxGeometry x="1026" y="741.25" width="39" height="39" as="geometry" />
        </mxCell>
        <mxCell id="tFzAAHaU8S95K_Trg-Dz-348" value="-2" style="whiteSpace=wrap;html=1;aspect=fixed;fontSize=16;fillColor=#e51400;fontColor=#ffffff;strokeColor=#B20000;" vertex="1" parent="1">
          <mxGeometry x="1065" y="741.25" width="39" height="39" as="geometry" />
        </mxCell>
        <mxCell id="tFzAAHaU8S95K_Trg-Dz-349" value="-1" style="whiteSpace=wrap;html=1;aspect=fixed;fontSize=16;fillColor=#1ba1e2;fontColor=#ffffff;strokeColor=#006EAF;" vertex="1" parent="1">
          <mxGeometry x="1104" y="741.25" width="39" height="39" as="geometry" />
        </mxCell>
        <mxCell id="tFzAAHaU8S95K_Trg-Dz-350" value="-1" style="whiteSpace=wrap;html=1;aspect=fixed;fontSize=16;fillColor=#1ba1e2;fontColor=#ffffff;strokeColor=#006EAF;" vertex="1" parent="1">
          <mxGeometry x="1143" y="741.25" width="39" height="39" as="geometry" />
        </mxCell>
        <mxCell id="tFzAAHaU8S95K_Trg-Dz-351" value="0" style="whiteSpace=wrap;html=1;aspect=fixed;fontSize=16;fillColor=#fff2cc;strokeColor=#d6b656;" vertex="1" parent="1">
          <mxGeometry x="1026" y="780.25" width="39" height="39" as="geometry" />
        </mxCell>
        <mxCell id="tFzAAHaU8S95K_Trg-Dz-352" value="0" style="whiteSpace=wrap;html=1;aspect=fixed;fontSize=16;fillColor=#fff2cc;strokeColor=#d6b656;" vertex="1" parent="1">
          <mxGeometry x="1065" y="780.25" width="39" height="39" as="geometry" />
        </mxCell>
        <mxCell id="tFzAAHaU8S95K_Trg-Dz-353" value="0" style="whiteSpace=wrap;html=1;aspect=fixed;fontSize=16;fillColor=#fff2cc;strokeColor=#d6b656;" vertex="1" parent="1">
          <mxGeometry x="1104" y="780.25" width="39" height="39" as="geometry" />
        </mxCell>
        <mxCell id="tFzAAHaU8S95K_Trg-Dz-354" value="-1" style="whiteSpace=wrap;html=1;aspect=fixed;fontSize=16;fillColor=#fff2cc;strokeColor=#d6b656;" vertex="1" parent="1">
          <mxGeometry x="1143" y="780.25" width="39" height="39" as="geometry" />
        </mxCell>
        <mxCell id="tFzAAHaU8S95K_Trg-Dz-355" value="0" style="whiteSpace=wrap;html=1;aspect=fixed;fontSize=16;fillColor=#fff2cc;strokeColor=#d6b656;" vertex="1" parent="1">
          <mxGeometry x="1026" y="625.75" width="39" height="39" as="geometry" />
        </mxCell>
        <mxCell id="tFzAAHaU8S95K_Trg-Dz-356" value="0" style="whiteSpace=wrap;html=1;aspect=fixed;fontSize=16;fillColor=#fff2cc;strokeColor=#d6b656;" vertex="1" parent="1">
          <mxGeometry x="1065" y="625.75" width="39" height="39" as="geometry" />
        </mxCell>
        <mxCell id="tFzAAHaU8S95K_Trg-Dz-357" value="0" style="whiteSpace=wrap;html=1;aspect=fixed;fontSize=16;fillColor=#fff2cc;strokeColor=#d6b656;" vertex="1" parent="1">
          <mxGeometry x="1104" y="625.75" width="39" height="39" as="geometry" />
        </mxCell>
        <mxCell id="tFzAAHaU8S95K_Trg-Dz-358" value="0" style="whiteSpace=wrap;html=1;aspect=fixed;fontSize=16;fillColor=#fff2cc;strokeColor=#d6b656;" vertex="1" parent="1">
          <mxGeometry x="1143" y="625.75" width="39" height="39" as="geometry" />
        </mxCell>
        <mxCell id="tFzAAHaU8S95K_Trg-Dz-359" value="-1" style="whiteSpace=wrap;html=1;aspect=fixed;fontSize=16;fillColor=#fff2cc;strokeColor=#d6b656;" vertex="1" parent="1">
          <mxGeometry x="1182" y="664.75" width="39" height="39" as="geometry" />
        </mxCell>
        <mxCell id="tFzAAHaU8S95K_Trg-Dz-360" value="0" style="whiteSpace=wrap;html=1;aspect=fixed;fontSize=16;fillColor=#fff2cc;strokeColor=#d6b656;" vertex="1" parent="1">
          <mxGeometry x="1182" y="703.75" width="39" height="39" as="geometry" />
        </mxCell>
        <mxCell id="tFzAAHaU8S95K_Trg-Dz-361" value="-1" style="whiteSpace=wrap;html=1;aspect=fixed;fontSize=16;fillColor=#fff2cc;strokeColor=#d6b656;" vertex="1" parent="1">
          <mxGeometry x="1182" y="741.25" width="39" height="39" as="geometry" />
        </mxCell>
        <mxCell id="tFzAAHaU8S95K_Trg-Dz-362" value="0" style="whiteSpace=wrap;html=1;aspect=fixed;fontSize=16;fillColor=#fff2cc;strokeColor=#d6b656;" vertex="1" parent="1">
          <mxGeometry x="1182" y="780.25" width="39" height="39" as="geometry" />
        </mxCell>
        <mxCell id="tFzAAHaU8S95K_Trg-Dz-363" value="0" style="whiteSpace=wrap;html=1;aspect=fixed;fontSize=16;fillColor=#fff2cc;strokeColor=#d6b656;" vertex="1" parent="1">
          <mxGeometry x="1182" y="625.75" width="39" height="39" as="geometry" />
        </mxCell>
        <mxCell id="tFzAAHaU8S95K_Trg-Dz-364" value="-1" style="whiteSpace=wrap;html=1;aspect=fixed;fontSize=16;fillColor=#fff2cc;strokeColor=#d6b656;" vertex="1" parent="1">
          <mxGeometry x="1319" y="664" width="39" height="39" as="geometry" />
        </mxCell>
        <mxCell id="tFzAAHaU8S95K_Trg-Dz-365" value="-1" style="whiteSpace=wrap;html=1;aspect=fixed;fontSize=16;fillColor=#1ba1e2;fontColor=#ffffff;strokeColor=#006EAF;" vertex="1" parent="1">
          <mxGeometry x="1358" y="664" width="39" height="39" as="geometry" />
        </mxCell>
        <mxCell id="tFzAAHaU8S95K_Trg-Dz-366" value="-1" style="whiteSpace=wrap;html=1;aspect=fixed;fontSize=16;fillColor=#1ba1e2;fontColor=#ffffff;strokeColor=#006EAF;" vertex="1" parent="1">
          <mxGeometry x="1397" y="664" width="39" height="39" as="geometry" />
        </mxCell>
        <mxCell id="tFzAAHaU8S95K_Trg-Dz-367" value="-2" style="whiteSpace=wrap;html=1;aspect=fixed;fontSize=16;fillColor=#e51400;fontColor=#ffffff;strokeColor=#B20000;" vertex="1" parent="1">
          <mxGeometry x="1436" y="664" width="39" height="39" as="geometry" />
        </mxCell>
        <mxCell id="tFzAAHaU8S95K_Trg-Dz-368" value="0" style="whiteSpace=wrap;html=1;aspect=fixed;fontSize=16;fillColor=#fff2cc;strokeColor=#d6b656;" vertex="1" parent="1">
          <mxGeometry x="1319" y="703" width="39" height="39" as="geometry" />
        </mxCell>
        <mxCell id="tFzAAHaU8S95K_Trg-Dz-369" value="0" style="whiteSpace=wrap;html=1;aspect=fixed;fontSize=16;" vertex="1" parent="1">
          <mxGeometry x="1358" y="703" width="39" height="39" as="geometry" />
        </mxCell>
        <mxCell id="tFzAAHaU8S95K_Trg-Dz-370" value="0" style="whiteSpace=wrap;html=1;aspect=fixed;fontSize=16;" vertex="1" parent="1">
          <mxGeometry x="1397" y="703" width="39" height="39" as="geometry" />
        </mxCell>
        <mxCell id="tFzAAHaU8S95K_Trg-Dz-371" value="0" style="whiteSpace=wrap;html=1;aspect=fixed;fontSize=16;" vertex="1" parent="1">
          <mxGeometry x="1436" y="703" width="39" height="39" as="geometry" />
        </mxCell>
        <mxCell id="tFzAAHaU8S95K_Trg-Dz-372" value="-1" style="whiteSpace=wrap;html=1;aspect=fixed;fontSize=16;fillColor=#fff2cc;strokeColor=#d6b656;" vertex="1" parent="1">
          <mxGeometry x="1319" y="740.5" width="39" height="39" as="geometry" />
        </mxCell>
        <mxCell id="tFzAAHaU8S95K_Trg-Dz-373" value="-1" style="whiteSpace=wrap;html=1;aspect=fixed;fontSize=16;fillColor=#1ba1e2;fontColor=#ffffff;strokeColor=#006EAF;" vertex="1" parent="1">
          <mxGeometry x="1358" y="740.5" width="39" height="39" as="geometry" />
        </mxCell>
        <mxCell id="tFzAAHaU8S95K_Trg-Dz-374" value="0" style="whiteSpace=wrap;html=1;aspect=fixed;fontSize=16;" vertex="1" parent="1">
          <mxGeometry x="1397" y="740.5" width="39" height="39" as="geometry" />
        </mxCell>
        <mxCell id="tFzAAHaU8S95K_Trg-Dz-375" value="0" style="whiteSpace=wrap;html=1;aspect=fixed;fontSize=16;" vertex="1" parent="1">
          <mxGeometry x="1436" y="740.5" width="39" height="39" as="geometry" />
        </mxCell>
        <mxCell id="tFzAAHaU8S95K_Trg-Dz-376" value="-1" style="whiteSpace=wrap;html=1;aspect=fixed;fontSize=16;fillColor=#fff2cc;strokeColor=#d6b656;" vertex="1" parent="1">
          <mxGeometry x="1319" y="779.5" width="39" height="39" as="geometry" />
        </mxCell>
        <mxCell id="tFzAAHaU8S95K_Trg-Dz-377" value="0" style="whiteSpace=wrap;html=1;aspect=fixed;fontSize=16;fillColor=#fff2cc;strokeColor=#d6b656;" vertex="1" parent="1">
          <mxGeometry x="1358" y="779.5" width="39" height="39" as="geometry" />
        </mxCell>
        <mxCell id="tFzAAHaU8S95K_Trg-Dz-378" value="0" style="whiteSpace=wrap;html=1;aspect=fixed;fontSize=16;fillColor=#fff2cc;strokeColor=#d6b656;" vertex="1" parent="1">
          <mxGeometry x="1397" y="779.5" width="39" height="39" as="geometry" />
        </mxCell>
        <mxCell id="tFzAAHaU8S95K_Trg-Dz-379" value="0" style="whiteSpace=wrap;html=1;aspect=fixed;fontSize=16;fillColor=#fff2cc;strokeColor=#d6b656;" vertex="1" parent="1">
          <mxGeometry x="1436" y="779.5" width="39" height="39" as="geometry" />
        </mxCell>
        <mxCell id="tFzAAHaU8S95K_Trg-Dz-380" value="0" style="whiteSpace=wrap;html=1;aspect=fixed;fontSize=16;fillColor=#fff2cc;strokeColor=#d6b656;" vertex="1" parent="1">
          <mxGeometry x="1319" y="625" width="39" height="39" as="geometry" />
        </mxCell>
        <mxCell id="tFzAAHaU8S95K_Trg-Dz-381" value="0" style="whiteSpace=wrap;html=1;aspect=fixed;fontSize=16;fillColor=#fff2cc;strokeColor=#d6b656;" vertex="1" parent="1">
          <mxGeometry x="1358" y="625" width="39" height="39" as="geometry" />
        </mxCell>
        <mxCell id="tFzAAHaU8S95K_Trg-Dz-382" value="0" style="whiteSpace=wrap;html=1;aspect=fixed;fontSize=16;fillColor=#fff2cc;strokeColor=#d6b656;" vertex="1" parent="1">
          <mxGeometry x="1397" y="625" width="39" height="39" as="geometry" />
        </mxCell>
        <mxCell id="tFzAAHaU8S95K_Trg-Dz-383" value="0" style="whiteSpace=wrap;html=1;aspect=fixed;fontSize=16;fillColor=#fff2cc;strokeColor=#d6b656;" vertex="1" parent="1">
          <mxGeometry x="1436" y="625" width="39" height="39" as="geometry" />
        </mxCell>
        <mxCell id="tFzAAHaU8S95K_Trg-Dz-384" value="-1" style="whiteSpace=wrap;html=1;aspect=fixed;fontSize=16;fillColor=#fff2cc;strokeColor=#d6b656;" vertex="1" parent="1">
          <mxGeometry x="1475" y="664" width="39" height="39" as="geometry" />
        </mxCell>
        <mxCell id="tFzAAHaU8S95K_Trg-Dz-385" value="0" style="whiteSpace=wrap;html=1;aspect=fixed;fontSize=16;fillColor=#fff2cc;strokeColor=#d6b656;" vertex="1" parent="1">
          <mxGeometry x="1475" y="703" width="39" height="39" as="geometry" />
        </mxCell>
        <mxCell id="tFzAAHaU8S95K_Trg-Dz-386" value="-1" style="whiteSpace=wrap;html=1;aspect=fixed;fontSize=16;fillColor=#fff2cc;strokeColor=#d6b656;" vertex="1" parent="1">
          <mxGeometry x="1475" y="740.5" width="39" height="39" as="geometry" />
        </mxCell>
        <mxCell id="tFzAAHaU8S95K_Trg-Dz-387" value="-1" style="whiteSpace=wrap;html=1;aspect=fixed;fontSize=16;fillColor=#fff2cc;strokeColor=#d6b656;" vertex="1" parent="1">
          <mxGeometry x="1475" y="779.5" width="39" height="39" as="geometry" />
        </mxCell>
        <mxCell id="tFzAAHaU8S95K_Trg-Dz-388" value="0" style="whiteSpace=wrap;html=1;aspect=fixed;fontSize=16;fillColor=#fff2cc;strokeColor=#d6b656;" vertex="1" parent="1">
          <mxGeometry x="1475" y="625" width="39" height="39" as="geometry" />
        </mxCell>
        <mxCell id="tFzAAHaU8S95K_Trg-Dz-389" value="-1" style="whiteSpace=wrap;html=1;aspect=fixed;fontSize=16;fillColor=#fff2cc;strokeColor=#d6b656;" vertex="1" parent="1">
          <mxGeometry x="1026" y="893.75" width="39" height="39" as="geometry" />
        </mxCell>
        <mxCell id="tFzAAHaU8S95K_Trg-Dz-390" value="-1" style="whiteSpace=wrap;html=1;aspect=fixed;fontSize=16;fillColor=#1ba1e2;fontColor=#ffffff;strokeColor=#006EAF;" vertex="1" parent="1">
          <mxGeometry x="1065" y="893.75" width="39" height="39" as="geometry" />
        </mxCell>
        <mxCell id="tFzAAHaU8S95K_Trg-Dz-391" value="-1" style="whiteSpace=wrap;html=1;aspect=fixed;fontSize=16;fillColor=#1ba1e2;fontColor=#ffffff;strokeColor=#006EAF;" vertex="1" parent="1">
          <mxGeometry x="1104" y="893.75" width="39" height="39" as="geometry" />
        </mxCell>
        <mxCell id="tFzAAHaU8S95K_Trg-Dz-392" value="-1" style="whiteSpace=wrap;html=1;aspect=fixed;fontSize=16;fillColor=#1ba1e2;fontColor=#ffffff;strokeColor=#006EAF;" vertex="1" parent="1">
          <mxGeometry x="1143" y="893.75" width="39" height="39" as="geometry" />
        </mxCell>
        <mxCell id="tFzAAHaU8S95K_Trg-Dz-393" value="0" style="whiteSpace=wrap;html=1;aspect=fixed;fontSize=16;fillColor=#fff2cc;strokeColor=#d6b656;" vertex="1" parent="1">
          <mxGeometry x="1026" y="932.75" width="39" height="39" as="geometry" />
        </mxCell>
        <mxCell id="tFzAAHaU8S95K_Trg-Dz-394" value="0" style="whiteSpace=wrap;html=1;aspect=fixed;fontSize=16;" vertex="1" parent="1">
          <mxGeometry x="1065" y="932.75" width="39" height="39" as="geometry" />
        </mxCell>
        <mxCell id="tFzAAHaU8S95K_Trg-Dz-395" value="0" style="whiteSpace=wrap;html=1;aspect=fixed;fontSize=16;" vertex="1" parent="1">
          <mxGeometry x="1104" y="932.75" width="39" height="39" as="geometry" />
        </mxCell>
        <mxCell id="tFzAAHaU8S95K_Trg-Dz-396" value="0" style="whiteSpace=wrap;html=1;aspect=fixed;fontSize=16;" vertex="1" parent="1">
          <mxGeometry x="1143" y="932.75" width="39" height="39" as="geometry" />
        </mxCell>
        <mxCell id="tFzAAHaU8S95K_Trg-Dz-397" value="0" style="whiteSpace=wrap;html=1;aspect=fixed;fontSize=16;fillColor=#fff2cc;strokeColor=#d6b656;" vertex="1" parent="1">
          <mxGeometry x="1026" y="970.25" width="39" height="39" as="geometry" />
        </mxCell>
        <mxCell id="tFzAAHaU8S95K_Trg-Dz-398" value="-2" style="whiteSpace=wrap;html=1;aspect=fixed;fontSize=16;fillColor=#e51400;fontColor=#ffffff;strokeColor=#B20000;" vertex="1" parent="1">
          <mxGeometry x="1065" y="970.25" width="39" height="39" as="geometry" />
        </mxCell>
        <mxCell id="tFzAAHaU8S95K_Trg-Dz-399" value="-2" style="whiteSpace=wrap;html=1;aspect=fixed;fontSize=16;fillColor=#e51400;fontColor=#ffffff;strokeColor=#B20000;" vertex="1" parent="1">
          <mxGeometry x="1104" y="970.25" width="39" height="39" as="geometry" />
        </mxCell>
        <mxCell id="tFzAAHaU8S95K_Trg-Dz-400" value="-2" style="whiteSpace=wrap;html=1;aspect=fixed;fontSize=16;fillColor=#e51400;fontColor=#ffffff;strokeColor=#B20000;" vertex="1" parent="1">
          <mxGeometry x="1143" y="970.25" width="39" height="39" as="geometry" />
        </mxCell>
        <mxCell id="tFzAAHaU8S95K_Trg-Dz-401" value="0" style="whiteSpace=wrap;html=1;aspect=fixed;fontSize=16;fillColor=#fff2cc;strokeColor=#d6b656;" vertex="1" parent="1">
          <mxGeometry x="1026" y="1009.25" width="39" height="39" as="geometry" />
        </mxCell>
        <mxCell id="tFzAAHaU8S95K_Trg-Dz-402" value="0" style="whiteSpace=wrap;html=1;aspect=fixed;fontSize=16;fillColor=#fff2cc;strokeColor=#d6b656;" vertex="1" parent="1">
          <mxGeometry x="1065" y="1009.25" width="39" height="39" as="geometry" />
        </mxCell>
        <mxCell id="tFzAAHaU8S95K_Trg-Dz-403" value="0" style="whiteSpace=wrap;html=1;aspect=fixed;fontSize=16;fillColor=#fff2cc;strokeColor=#d6b656;" vertex="1" parent="1">
          <mxGeometry x="1104" y="1009.25" width="39" height="39" as="geometry" />
        </mxCell>
        <mxCell id="tFzAAHaU8S95K_Trg-Dz-404" value="-1" style="whiteSpace=wrap;html=1;aspect=fixed;fontSize=16;fillColor=#fff2cc;strokeColor=#d6b656;" vertex="1" parent="1">
          <mxGeometry x="1143" y="1009.25" width="39" height="39" as="geometry" />
        </mxCell>
        <mxCell id="tFzAAHaU8S95K_Trg-Dz-405" value="0" style="whiteSpace=wrap;html=1;aspect=fixed;fontSize=16;fillColor=#fff2cc;strokeColor=#d6b656;" vertex="1" parent="1">
          <mxGeometry x="1026" y="854.75" width="39" height="39" as="geometry" />
        </mxCell>
        <mxCell id="tFzAAHaU8S95K_Trg-Dz-406" value="0" style="whiteSpace=wrap;html=1;aspect=fixed;fontSize=16;fillColor=#fff2cc;strokeColor=#d6b656;" vertex="1" parent="1">
          <mxGeometry x="1065" y="854.75" width="39" height="39" as="geometry" />
        </mxCell>
        <mxCell id="tFzAAHaU8S95K_Trg-Dz-407" value="0" style="whiteSpace=wrap;html=1;aspect=fixed;fontSize=16;fillColor=#fff2cc;strokeColor=#d6b656;" vertex="1" parent="1">
          <mxGeometry x="1104" y="854.75" width="39" height="39" as="geometry" />
        </mxCell>
        <mxCell id="tFzAAHaU8S95K_Trg-Dz-408" value="0" style="whiteSpace=wrap;html=1;aspect=fixed;fontSize=16;fillColor=#fff2cc;strokeColor=#d6b656;" vertex="1" parent="1">
          <mxGeometry x="1143" y="854.75" width="39" height="39" as="geometry" />
        </mxCell>
        <mxCell id="tFzAAHaU8S95K_Trg-Dz-409" value="-1" style="whiteSpace=wrap;html=1;aspect=fixed;fontSize=16;fillColor=#fff2cc;strokeColor=#d6b656;" vertex="1" parent="1">
          <mxGeometry x="1182" y="893.75" width="39" height="39" as="geometry" />
        </mxCell>
        <mxCell id="tFzAAHaU8S95K_Trg-Dz-410" value="0" style="whiteSpace=wrap;html=1;aspect=fixed;fontSize=16;fillColor=#fff2cc;strokeColor=#d6b656;" vertex="1" parent="1">
          <mxGeometry x="1182" y="932.75" width="39" height="39" as="geometry" />
        </mxCell>
        <mxCell id="tFzAAHaU8S95K_Trg-Dz-411" value="-1" style="whiteSpace=wrap;html=1;aspect=fixed;fontSize=16;fillColor=#fff2cc;strokeColor=#d6b656;" vertex="1" parent="1">
          <mxGeometry x="1182" y="970.25" width="39" height="39" as="geometry" />
        </mxCell>
        <mxCell id="tFzAAHaU8S95K_Trg-Dz-412" value="0" style="whiteSpace=wrap;html=1;aspect=fixed;fontSize=16;fillColor=#fff2cc;strokeColor=#d6b656;" vertex="1" parent="1">
          <mxGeometry x="1182" y="1009.25" width="39" height="39" as="geometry" />
        </mxCell>
        <mxCell id="tFzAAHaU8S95K_Trg-Dz-413" value="0" style="whiteSpace=wrap;html=1;aspect=fixed;fontSize=16;fillColor=#fff2cc;strokeColor=#d6b656;" vertex="1" parent="1">
          <mxGeometry x="1182" y="854.75" width="39" height="39" as="geometry" />
        </mxCell>
        <mxCell id="tFzAAHaU8S95K_Trg-Dz-414" value="-1" style="whiteSpace=wrap;html=1;aspect=fixed;fontSize=16;fillColor=#fff2cc;strokeColor=#d6b656;" vertex="1" parent="1">
          <mxGeometry x="1319" y="893" width="39" height="39" as="geometry" />
        </mxCell>
        <mxCell id="tFzAAHaU8S95K_Trg-Dz-415" value="-2" style="whiteSpace=wrap;html=1;aspect=fixed;fontSize=16;fillColor=#e51400;fontColor=#ffffff;strokeColor=#B20000;" vertex="1" parent="1">
          <mxGeometry x="1358" y="893" width="39" height="39" as="geometry" />
        </mxCell>
        <mxCell id="tFzAAHaU8S95K_Trg-Dz-416" value="-2" style="whiteSpace=wrap;html=1;aspect=fixed;fontSize=16;fillColor=#e51400;fontColor=#ffffff;strokeColor=#B20000;" vertex="1" parent="1">
          <mxGeometry x="1397" y="893" width="39" height="39" as="geometry" />
        </mxCell>
        <mxCell id="tFzAAHaU8S95K_Trg-Dz-417" value="-2" style="whiteSpace=wrap;html=1;aspect=fixed;fontSize=16;fillColor=#e51400;fontColor=#ffffff;strokeColor=#B20000;" vertex="1" parent="1">
          <mxGeometry x="1436" y="893" width="39" height="39" as="geometry" />
        </mxCell>
        <mxCell id="tFzAAHaU8S95K_Trg-Dz-418" value="0" style="whiteSpace=wrap;html=1;aspect=fixed;fontSize=16;fillColor=#fff2cc;strokeColor=#d6b656;" vertex="1" parent="1">
          <mxGeometry x="1319" y="932" width="39" height="39" as="geometry" />
        </mxCell>
        <mxCell id="tFzAAHaU8S95K_Trg-Dz-419" value="0" style="whiteSpace=wrap;html=1;aspect=fixed;fontSize=16;" vertex="1" parent="1">
          <mxGeometry x="1358" y="932" width="39" height="39" as="geometry" />
        </mxCell>
        <mxCell id="tFzAAHaU8S95K_Trg-Dz-420" value="0" style="whiteSpace=wrap;html=1;aspect=fixed;fontSize=16;" vertex="1" parent="1">
          <mxGeometry x="1397" y="932" width="39" height="39" as="geometry" />
        </mxCell>
        <mxCell id="tFzAAHaU8S95K_Trg-Dz-421" value="0" style="whiteSpace=wrap;html=1;aspect=fixed;fontSize=16;" vertex="1" parent="1">
          <mxGeometry x="1436" y="932" width="39" height="39" as="geometry" />
        </mxCell>
        <mxCell id="tFzAAHaU8S95K_Trg-Dz-422" value="-1" style="whiteSpace=wrap;html=1;aspect=fixed;fontSize=16;fillColor=#fff2cc;strokeColor=#d6b656;" vertex="1" parent="1">
          <mxGeometry x="1319" y="969.5" width="39" height="39" as="geometry" />
        </mxCell>
        <mxCell id="tFzAAHaU8S95K_Trg-Dz-423" value="-1" style="whiteSpace=wrap;html=1;aspect=fixed;fontSize=16;fillColor=#1ba1e2;fontColor=#ffffff;strokeColor=#006EAF;" vertex="1" parent="1">
          <mxGeometry x="1358" y="969.5" width="39" height="39" as="geometry" />
        </mxCell>
        <mxCell id="tFzAAHaU8S95K_Trg-Dz-424" value="0" style="whiteSpace=wrap;html=1;aspect=fixed;fontSize=16;" vertex="1" parent="1">
          <mxGeometry x="1397" y="969.5" width="39" height="39" as="geometry" />
        </mxCell>
        <mxCell id="tFzAAHaU8S95K_Trg-Dz-425" value="0" style="whiteSpace=wrap;html=1;aspect=fixed;fontSize=16;" vertex="1" parent="1">
          <mxGeometry x="1436" y="969.5" width="39" height="39" as="geometry" />
        </mxCell>
        <mxCell id="tFzAAHaU8S95K_Trg-Dz-426" value="-1" style="whiteSpace=wrap;html=1;aspect=fixed;fontSize=16;fillColor=#fff2cc;strokeColor=#d6b656;" vertex="1" parent="1">
          <mxGeometry x="1319" y="1008.5" width="39" height="39" as="geometry" />
        </mxCell>
        <mxCell id="tFzAAHaU8S95K_Trg-Dz-427" value="0" style="whiteSpace=wrap;html=1;aspect=fixed;fontSize=16;fillColor=#fff2cc;strokeColor=#d6b656;" vertex="1" parent="1">
          <mxGeometry x="1358" y="1008.5" width="39" height="39" as="geometry" />
        </mxCell>
        <mxCell id="tFzAAHaU8S95K_Trg-Dz-428" value="0" style="whiteSpace=wrap;html=1;aspect=fixed;fontSize=16;fillColor=#fff2cc;strokeColor=#d6b656;" vertex="1" parent="1">
          <mxGeometry x="1397" y="1008.5" width="39" height="39" as="geometry" />
        </mxCell>
        <mxCell id="tFzAAHaU8S95K_Trg-Dz-429" value="0" style="whiteSpace=wrap;html=1;aspect=fixed;fontSize=16;fillColor=#fff2cc;strokeColor=#d6b656;" vertex="1" parent="1">
          <mxGeometry x="1436" y="1008.5" width="39" height="39" as="geometry" />
        </mxCell>
        <mxCell id="tFzAAHaU8S95K_Trg-Dz-430" value="0" style="whiteSpace=wrap;html=1;aspect=fixed;fontSize=16;fillColor=#fff2cc;strokeColor=#d6b656;" vertex="1" parent="1">
          <mxGeometry x="1319" y="854" width="39" height="39" as="geometry" />
        </mxCell>
        <mxCell id="tFzAAHaU8S95K_Trg-Dz-431" value="0" style="whiteSpace=wrap;html=1;aspect=fixed;fontSize=16;fillColor=#fff2cc;strokeColor=#d6b656;" vertex="1" parent="1">
          <mxGeometry x="1358" y="854" width="39" height="39" as="geometry" />
        </mxCell>
        <mxCell id="tFzAAHaU8S95K_Trg-Dz-432" value="0" style="whiteSpace=wrap;html=1;aspect=fixed;fontSize=16;fillColor=#fff2cc;strokeColor=#d6b656;" vertex="1" parent="1">
          <mxGeometry x="1397" y="854" width="39" height="39" as="geometry" />
        </mxCell>
        <mxCell id="tFzAAHaU8S95K_Trg-Dz-433" value="0" style="whiteSpace=wrap;html=1;aspect=fixed;fontSize=16;fillColor=#fff2cc;strokeColor=#d6b656;" vertex="1" parent="1">
          <mxGeometry x="1436" y="854" width="39" height="39" as="geometry" />
        </mxCell>
        <mxCell id="tFzAAHaU8S95K_Trg-Dz-434" value="-1" style="whiteSpace=wrap;html=1;aspect=fixed;fontSize=16;fillColor=#fff2cc;strokeColor=#d6b656;" vertex="1" parent="1">
          <mxGeometry x="1475" y="893" width="39" height="39" as="geometry" />
        </mxCell>
        <mxCell id="tFzAAHaU8S95K_Trg-Dz-435" value="0" style="whiteSpace=wrap;html=1;aspect=fixed;fontSize=16;fillColor=#fff2cc;strokeColor=#d6b656;" vertex="1" parent="1">
          <mxGeometry x="1475" y="932" width="39" height="39" as="geometry" />
        </mxCell>
        <mxCell id="tFzAAHaU8S95K_Trg-Dz-436" value="-1" style="whiteSpace=wrap;html=1;aspect=fixed;fontSize=16;fillColor=#fff2cc;strokeColor=#d6b656;" vertex="1" parent="1">
          <mxGeometry x="1475" y="969.5" width="39" height="39" as="geometry" />
        </mxCell>
        <mxCell id="tFzAAHaU8S95K_Trg-Dz-437" value="-1" style="whiteSpace=wrap;html=1;aspect=fixed;fontSize=16;fillColor=#fff2cc;strokeColor=#d6b656;" vertex="1" parent="1">
          <mxGeometry x="1475" y="1008.5" width="39" height="39" as="geometry" />
        </mxCell>
        <mxCell id="tFzAAHaU8S95K_Trg-Dz-438" value="0" style="whiteSpace=wrap;html=1;aspect=fixed;fontSize=16;fillColor=#fff2cc;strokeColor=#d6b656;" vertex="1" parent="1">
          <mxGeometry x="1475" y="854" width="39" height="39" as="geometry" />
        </mxCell>
        <mxCell id="tFzAAHaU8S95K_Trg-Dz-439" value="-1" style="whiteSpace=wrap;html=1;aspect=fixed;fontSize=16;fillColor=#fff2cc;strokeColor=#d6b656;" vertex="1" parent="1">
          <mxGeometry x="1026" y="1143.75" width="39" height="39" as="geometry" />
        </mxCell>
        <mxCell id="tFzAAHaU8S95K_Trg-Dz-440" value="-1" style="whiteSpace=wrap;html=1;aspect=fixed;fontSize=16;fillColor=#1ba1e2;fontColor=#ffffff;strokeColor=#006EAF;" vertex="1" parent="1">
          <mxGeometry x="1065" y="1143.75" width="39" height="39" as="geometry" />
        </mxCell>
        <mxCell id="tFzAAHaU8S95K_Trg-Dz-441" value="-1" style="whiteSpace=wrap;html=1;aspect=fixed;fontSize=16;fillColor=#1ba1e2;fontColor=#ffffff;strokeColor=#006EAF;" vertex="1" parent="1">
          <mxGeometry x="1104" y="1143.75" width="39" height="39" as="geometry" />
        </mxCell>
        <mxCell id="tFzAAHaU8S95K_Trg-Dz-442" value="-1" style="whiteSpace=wrap;html=1;aspect=fixed;fontSize=16;fillColor=#1ba1e2;fontColor=#ffffff;strokeColor=#006EAF;" vertex="1" parent="1">
          <mxGeometry x="1143" y="1143.75" width="39" height="39" as="geometry" />
        </mxCell>
        <mxCell id="tFzAAHaU8S95K_Trg-Dz-443" value="0" style="whiteSpace=wrap;html=1;aspect=fixed;fontSize=16;fillColor=#fff2cc;strokeColor=#d6b656;" vertex="1" parent="1">
          <mxGeometry x="1026" y="1182.75" width="39" height="39" as="geometry" />
        </mxCell>
        <mxCell id="tFzAAHaU8S95K_Trg-Dz-444" value="0" style="whiteSpace=wrap;html=1;aspect=fixed;fontSize=16;" vertex="1" parent="1">
          <mxGeometry x="1065" y="1182.75" width="39" height="39" as="geometry" />
        </mxCell>
        <mxCell id="tFzAAHaU8S95K_Trg-Dz-445" value="0" style="whiteSpace=wrap;html=1;aspect=fixed;fontSize=16;" vertex="1" parent="1">
          <mxGeometry x="1104" y="1182.75" width="39" height="39" as="geometry" />
        </mxCell>
        <mxCell id="tFzAAHaU8S95K_Trg-Dz-446" value="0" style="whiteSpace=wrap;html=1;aspect=fixed;fontSize=16;" vertex="1" parent="1">
          <mxGeometry x="1143" y="1182.75" width="39" height="39" as="geometry" />
        </mxCell>
        <mxCell id="tFzAAHaU8S95K_Trg-Dz-447" value="0" style="whiteSpace=wrap;html=1;aspect=fixed;fontSize=16;fillColor=#fff2cc;strokeColor=#d6b656;" vertex="1" parent="1">
          <mxGeometry x="1026" y="1220.25" width="39" height="39" as="geometry" />
        </mxCell>
        <mxCell id="tFzAAHaU8S95K_Trg-Dz-448" value="-2" style="whiteSpace=wrap;html=1;aspect=fixed;fontSize=16;fillColor=#e51400;fontColor=#ffffff;strokeColor=#B20000;" vertex="1" parent="1">
          <mxGeometry x="1065" y="1220.25" width="39" height="39" as="geometry" />
        </mxCell>
        <mxCell id="tFzAAHaU8S95K_Trg-Dz-449" value="-2" style="whiteSpace=wrap;html=1;aspect=fixed;fontSize=16;fillColor=#e51400;fontColor=#ffffff;strokeColor=#B20000;" vertex="1" parent="1">
          <mxGeometry x="1104" y="1220.25" width="39" height="39" as="geometry" />
        </mxCell>
        <mxCell id="tFzAAHaU8S95K_Trg-Dz-450" value="-2" style="whiteSpace=wrap;html=1;aspect=fixed;fontSize=16;fillColor=#e51400;fontColor=#ffffff;strokeColor=#B20000;" vertex="1" parent="1">
          <mxGeometry x="1143" y="1220.25" width="39" height="39" as="geometry" />
        </mxCell>
        <mxCell id="tFzAAHaU8S95K_Trg-Dz-451" value="0" style="whiteSpace=wrap;html=1;aspect=fixed;fontSize=16;fillColor=#fff2cc;strokeColor=#d6b656;" vertex="1" parent="1">
          <mxGeometry x="1026" y="1259.25" width="39" height="39" as="geometry" />
        </mxCell>
        <mxCell id="tFzAAHaU8S95K_Trg-Dz-452" value="0" style="whiteSpace=wrap;html=1;aspect=fixed;fontSize=16;fillColor=#fff2cc;strokeColor=#d6b656;" vertex="1" parent="1">
          <mxGeometry x="1065" y="1259.25" width="39" height="39" as="geometry" />
        </mxCell>
        <mxCell id="tFzAAHaU8S95K_Trg-Dz-453" value="0" style="whiteSpace=wrap;html=1;aspect=fixed;fontSize=16;fillColor=#fff2cc;strokeColor=#d6b656;" vertex="1" parent="1">
          <mxGeometry x="1104" y="1259.25" width="39" height="39" as="geometry" />
        </mxCell>
        <mxCell id="tFzAAHaU8S95K_Trg-Dz-454" value="-1" style="whiteSpace=wrap;html=1;aspect=fixed;fontSize=16;fillColor=#fff2cc;strokeColor=#d6b656;" vertex="1" parent="1">
          <mxGeometry x="1143" y="1259.25" width="39" height="39" as="geometry" />
        </mxCell>
        <mxCell id="tFzAAHaU8S95K_Trg-Dz-455" value="0" style="whiteSpace=wrap;html=1;aspect=fixed;fontSize=16;fillColor=#fff2cc;strokeColor=#d6b656;" vertex="1" parent="1">
          <mxGeometry x="1026" y="1104.75" width="39" height="39" as="geometry" />
        </mxCell>
        <mxCell id="tFzAAHaU8S95K_Trg-Dz-456" value="0" style="whiteSpace=wrap;html=1;aspect=fixed;fontSize=16;fillColor=#fff2cc;strokeColor=#d6b656;" vertex="1" parent="1">
          <mxGeometry x="1065" y="1104.75" width="39" height="39" as="geometry" />
        </mxCell>
        <mxCell id="tFzAAHaU8S95K_Trg-Dz-457" value="0" style="whiteSpace=wrap;html=1;aspect=fixed;fontSize=16;fillColor=#fff2cc;strokeColor=#d6b656;" vertex="1" parent="1">
          <mxGeometry x="1104" y="1104.75" width="39" height="39" as="geometry" />
        </mxCell>
        <mxCell id="tFzAAHaU8S95K_Trg-Dz-458" value="0" style="whiteSpace=wrap;html=1;aspect=fixed;fontSize=16;fillColor=#fff2cc;strokeColor=#d6b656;" vertex="1" parent="1">
          <mxGeometry x="1143" y="1104.75" width="39" height="39" as="geometry" />
        </mxCell>
        <mxCell id="tFzAAHaU8S95K_Trg-Dz-459" value="-2" style="whiteSpace=wrap;html=1;aspect=fixed;fontSize=16;fillColor=#e51400;strokeColor=#B20000;fontColor=#ffffff;" vertex="1" parent="1">
          <mxGeometry x="1182" y="1143.75" width="39" height="39" as="geometry" />
        </mxCell>
        <mxCell id="tFzAAHaU8S95K_Trg-Dz-460" value="0" style="whiteSpace=wrap;html=1;aspect=fixed;fontSize=16;fillColor=#fff2cc;strokeColor=#d6b656;" vertex="1" parent="1">
          <mxGeometry x="1182" y="1182.75" width="39" height="39" as="geometry" />
        </mxCell>
        <mxCell id="tFzAAHaU8S95K_Trg-Dz-461" value="-1" style="whiteSpace=wrap;html=1;aspect=fixed;fontSize=16;fillColor=#fff2cc;strokeColor=#d6b656;" vertex="1" parent="1">
          <mxGeometry x="1182" y="1220.25" width="39" height="39" as="geometry" />
        </mxCell>
        <mxCell id="tFzAAHaU8S95K_Trg-Dz-462" value="0" style="whiteSpace=wrap;html=1;aspect=fixed;fontSize=16;fillColor=#fff2cc;strokeColor=#d6b656;" vertex="1" parent="1">
          <mxGeometry x="1182" y="1259.25" width="39" height="39" as="geometry" />
        </mxCell>
        <mxCell id="tFzAAHaU8S95K_Trg-Dz-463" value="0" style="whiteSpace=wrap;html=1;aspect=fixed;fontSize=16;fillColor=#fff2cc;strokeColor=#d6b656;" vertex="1" parent="1">
          <mxGeometry x="1182" y="1104.75" width="39" height="39" as="geometry" />
        </mxCell>
        <mxCell id="tFzAAHaU8S95K_Trg-Dz-464" value="-1" style="whiteSpace=wrap;html=1;aspect=fixed;fontSize=16;fillColor=#fff2cc;strokeColor=#d6b656;" vertex="1" parent="1">
          <mxGeometry x="1319" y="1143" width="39" height="39" as="geometry" />
        </mxCell>
        <mxCell id="tFzAAHaU8S95K_Trg-Dz-465" value="-2" style="whiteSpace=wrap;html=1;aspect=fixed;fontSize=16;fillColor=#e51400;fontColor=#ffffff;strokeColor=#B20000;" vertex="1" parent="1">
          <mxGeometry x="1358" y="1143" width="39" height="39" as="geometry" />
        </mxCell>
        <mxCell id="tFzAAHaU8S95K_Trg-Dz-466" value="-2" style="whiteSpace=wrap;html=1;aspect=fixed;fontSize=16;fillColor=#e51400;fontColor=#ffffff;strokeColor=#B20000;" vertex="1" parent="1">
          <mxGeometry x="1397" y="1143" width="39" height="39" as="geometry" />
        </mxCell>
        <mxCell id="tFzAAHaU8S95K_Trg-Dz-467" value="-2" style="whiteSpace=wrap;html=1;aspect=fixed;fontSize=16;fillColor=#e51400;fontColor=#ffffff;strokeColor=#B20000;" vertex="1" parent="1">
          <mxGeometry x="1436" y="1143" width="39" height="39" as="geometry" />
        </mxCell>
        <mxCell id="tFzAAHaU8S95K_Trg-Dz-468" value="0" style="whiteSpace=wrap;html=1;aspect=fixed;fontSize=16;fillColor=#fff2cc;strokeColor=#d6b656;" vertex="1" parent="1">
          <mxGeometry x="1319" y="1182" width="39" height="39" as="geometry" />
        </mxCell>
        <mxCell id="tFzAAHaU8S95K_Trg-Dz-469" value="0" style="whiteSpace=wrap;html=1;aspect=fixed;fontSize=16;" vertex="1" parent="1">
          <mxGeometry x="1358" y="1182" width="39" height="39" as="geometry" />
        </mxCell>
        <mxCell id="tFzAAHaU8S95K_Trg-Dz-470" value="0" style="whiteSpace=wrap;html=1;aspect=fixed;fontSize=16;" vertex="1" parent="1">
          <mxGeometry x="1397" y="1182" width="39" height="39" as="geometry" />
        </mxCell>
        <mxCell id="tFzAAHaU8S95K_Trg-Dz-471" value="0" style="whiteSpace=wrap;html=1;aspect=fixed;fontSize=16;" vertex="1" parent="1">
          <mxGeometry x="1436" y="1182" width="39" height="39" as="geometry" />
        </mxCell>
        <mxCell id="tFzAAHaU8S95K_Trg-Dz-472" value="-2" style="whiteSpace=wrap;html=1;aspect=fixed;fontSize=16;fillColor=#e51400;strokeColor=#B20000;fontColor=#ffffff;" vertex="1" parent="1">
          <mxGeometry x="1319" y="1219.5" width="39" height="39" as="geometry" />
        </mxCell>
        <mxCell id="tFzAAHaU8S95K_Trg-Dz-473" value="-1" style="whiteSpace=wrap;html=1;aspect=fixed;fontSize=16;fillColor=#1ba1e2;fontColor=#ffffff;strokeColor=#006EAF;" vertex="1" parent="1">
          <mxGeometry x="1358" y="1219.5" width="39" height="39" as="geometry" />
        </mxCell>
        <mxCell id="tFzAAHaU8S95K_Trg-Dz-474" value="0" style="whiteSpace=wrap;html=1;aspect=fixed;fontSize=16;" vertex="1" parent="1">
          <mxGeometry x="1397" y="1219.5" width="39" height="39" as="geometry" />
        </mxCell>
        <mxCell id="tFzAAHaU8S95K_Trg-Dz-475" value="0" style="whiteSpace=wrap;html=1;aspect=fixed;fontSize=16;" vertex="1" parent="1">
          <mxGeometry x="1436" y="1219.5" width="39" height="39" as="geometry" />
        </mxCell>
        <mxCell id="tFzAAHaU8S95K_Trg-Dz-476" value="-1" style="whiteSpace=wrap;html=1;aspect=fixed;fontSize=16;fillColor=#fff2cc;strokeColor=#d6b656;" vertex="1" parent="1">
          <mxGeometry x="1319" y="1258.5" width="39" height="39" as="geometry" />
        </mxCell>
        <mxCell id="tFzAAHaU8S95K_Trg-Dz-477" value="0" style="whiteSpace=wrap;html=1;aspect=fixed;fontSize=16;fillColor=#fff2cc;strokeColor=#d6b656;" vertex="1" parent="1">
          <mxGeometry x="1358" y="1258.5" width="39" height="39" as="geometry" />
        </mxCell>
        <mxCell id="tFzAAHaU8S95K_Trg-Dz-478" value="0" style="whiteSpace=wrap;html=1;aspect=fixed;fontSize=16;fillColor=#fff2cc;strokeColor=#d6b656;" vertex="1" parent="1">
          <mxGeometry x="1397" y="1258.5" width="39" height="39" as="geometry" />
        </mxCell>
        <mxCell id="tFzAAHaU8S95K_Trg-Dz-479" value="0" style="whiteSpace=wrap;html=1;aspect=fixed;fontSize=16;fillColor=#fff2cc;strokeColor=#d6b656;" vertex="1" parent="1">
          <mxGeometry x="1436" y="1258.5" width="39" height="39" as="geometry" />
        </mxCell>
        <mxCell id="tFzAAHaU8S95K_Trg-Dz-480" value="0" style="whiteSpace=wrap;html=1;aspect=fixed;fontSize=16;fillColor=#fff2cc;strokeColor=#d6b656;" vertex="1" parent="1">
          <mxGeometry x="1319" y="1104" width="39" height="39" as="geometry" />
        </mxCell>
        <mxCell id="tFzAAHaU8S95K_Trg-Dz-481" value="0" style="whiteSpace=wrap;html=1;aspect=fixed;fontSize=16;fillColor=#fff2cc;strokeColor=#d6b656;" vertex="1" parent="1">
          <mxGeometry x="1358" y="1104" width="39" height="39" as="geometry" />
        </mxCell>
        <mxCell id="tFzAAHaU8S95K_Trg-Dz-482" value="0" style="whiteSpace=wrap;html=1;aspect=fixed;fontSize=16;fillColor=#fff2cc;strokeColor=#d6b656;" vertex="1" parent="1">
          <mxGeometry x="1397" y="1104" width="39" height="39" as="geometry" />
        </mxCell>
        <mxCell id="tFzAAHaU8S95K_Trg-Dz-483" value="0" style="whiteSpace=wrap;html=1;aspect=fixed;fontSize=16;fillColor=#fff2cc;strokeColor=#d6b656;" vertex="1" parent="1">
          <mxGeometry x="1436" y="1104" width="39" height="39" as="geometry" />
        </mxCell>
        <mxCell id="tFzAAHaU8S95K_Trg-Dz-484" value="-1" style="whiteSpace=wrap;html=1;aspect=fixed;fontSize=16;fillColor=#fff2cc;strokeColor=#d6b656;" vertex="1" parent="1">
          <mxGeometry x="1475" y="1143" width="39" height="39" as="geometry" />
        </mxCell>
        <mxCell id="tFzAAHaU8S95K_Trg-Dz-485" value="0" style="whiteSpace=wrap;html=1;aspect=fixed;fontSize=16;fillColor=#fff2cc;strokeColor=#d6b656;" vertex="1" parent="1">
          <mxGeometry x="1475" y="1182" width="39" height="39" as="geometry" />
        </mxCell>
        <mxCell id="tFzAAHaU8S95K_Trg-Dz-486" value="-1" style="whiteSpace=wrap;html=1;aspect=fixed;fontSize=16;fillColor=#fff2cc;strokeColor=#d6b656;" vertex="1" parent="1">
          <mxGeometry x="1475" y="1219.5" width="39" height="39" as="geometry" />
        </mxCell>
        <mxCell id="tFzAAHaU8S95K_Trg-Dz-487" value="-1" style="whiteSpace=wrap;html=1;aspect=fixed;fontSize=16;fillColor=#fff2cc;strokeColor=#d6b656;" vertex="1" parent="1">
          <mxGeometry x="1475" y="1258.5" width="39" height="39" as="geometry" />
        </mxCell>
        <mxCell id="tFzAAHaU8S95K_Trg-Dz-488" value="0" style="whiteSpace=wrap;html=1;aspect=fixed;fontSize=16;fillColor=#fff2cc;strokeColor=#d6b656;" vertex="1" parent="1">
          <mxGeometry x="1475" y="1104" width="39" height="39" as="geometry" />
        </mxCell>
        <mxCell id="tFzAAHaU8S95K_Trg-Dz-489" value="-1" style="whiteSpace=wrap;html=1;aspect=fixed;fontSize=16;fillColor=#fff2cc;strokeColor=#d6b656;" vertex="1" parent="1">
          <mxGeometry x="1026" y="1378.75" width="39" height="39" as="geometry" />
        </mxCell>
        <mxCell id="tFzAAHaU8S95K_Trg-Dz-490" value="-2" style="whiteSpace=wrap;html=1;aspect=fixed;fontSize=16;fillColor=#e51400;fontColor=#ffffff;strokeColor=#B20000;" vertex="1" parent="1">
          <mxGeometry x="1065" y="1378.75" width="39" height="39" as="geometry" />
        </mxCell>
        <mxCell id="tFzAAHaU8S95K_Trg-Dz-491" value="-2" style="whiteSpace=wrap;html=1;aspect=fixed;fontSize=16;fillColor=#e51400;fontColor=#ffffff;strokeColor=#B20000;" vertex="1" parent="1">
          <mxGeometry x="1104" y="1378.75" width="39" height="39" as="geometry" />
        </mxCell>
        <mxCell id="tFzAAHaU8S95K_Trg-Dz-492" value="-2" style="whiteSpace=wrap;html=1;aspect=fixed;fontSize=16;fillColor=#e51400;fontColor=#ffffff;strokeColor=#B20000;" vertex="1" parent="1">
          <mxGeometry x="1143" y="1378.75" width="39" height="39" as="geometry" />
        </mxCell>
        <mxCell id="tFzAAHaU8S95K_Trg-Dz-493" value="0" style="whiteSpace=wrap;html=1;aspect=fixed;fontSize=16;fillColor=#fff2cc;strokeColor=#d6b656;" vertex="1" parent="1">
          <mxGeometry x="1026" y="1417.75" width="39" height="39" as="geometry" />
        </mxCell>
        <mxCell id="tFzAAHaU8S95K_Trg-Dz-494" value="0" style="whiteSpace=wrap;html=1;aspect=fixed;fontSize=16;" vertex="1" parent="1">
          <mxGeometry x="1065" y="1417.75" width="39" height="39" as="geometry" />
        </mxCell>
        <mxCell id="tFzAAHaU8S95K_Trg-Dz-495" value="0" style="whiteSpace=wrap;html=1;aspect=fixed;fontSize=16;" vertex="1" parent="1">
          <mxGeometry x="1104" y="1417.75" width="39" height="39" as="geometry" />
        </mxCell>
        <mxCell id="tFzAAHaU8S95K_Trg-Dz-496" value="0" style="whiteSpace=wrap;html=1;aspect=fixed;fontSize=16;" vertex="1" parent="1">
          <mxGeometry x="1143" y="1417.75" width="39" height="39" as="geometry" />
        </mxCell>
        <mxCell id="tFzAAHaU8S95K_Trg-Dz-497" value="0" style="whiteSpace=wrap;html=1;aspect=fixed;fontSize=16;fillColor=#fff2cc;strokeColor=#d6b656;" vertex="1" parent="1">
          <mxGeometry x="1026" y="1455.25" width="39" height="39" as="geometry" />
        </mxCell>
        <mxCell id="tFzAAHaU8S95K_Trg-Dz-498" value="-2" style="whiteSpace=wrap;html=1;aspect=fixed;fontSize=16;fillColor=#e51400;fontColor=#ffffff;strokeColor=#B20000;" vertex="1" parent="1">
          <mxGeometry x="1065" y="1455.25" width="39" height="39" as="geometry" />
        </mxCell>
        <mxCell id="tFzAAHaU8S95K_Trg-Dz-499" value="-2" style="whiteSpace=wrap;html=1;aspect=fixed;fontSize=16;fillColor=#e51400;fontColor=#ffffff;strokeColor=#B20000;" vertex="1" parent="1">
          <mxGeometry x="1104" y="1455.25" width="39" height="39" as="geometry" />
        </mxCell>
        <mxCell id="tFzAAHaU8S95K_Trg-Dz-500" value="-2" style="whiteSpace=wrap;html=1;aspect=fixed;fontSize=16;fillColor=#e51400;fontColor=#ffffff;strokeColor=#B20000;" vertex="1" parent="1">
          <mxGeometry x="1143" y="1455.25" width="39" height="39" as="geometry" />
        </mxCell>
        <mxCell id="tFzAAHaU8S95K_Trg-Dz-501" value="0" style="whiteSpace=wrap;html=1;aspect=fixed;fontSize=16;fillColor=#fff2cc;strokeColor=#d6b656;" vertex="1" parent="1">
          <mxGeometry x="1026" y="1494.25" width="39" height="39" as="geometry" />
        </mxCell>
        <mxCell id="tFzAAHaU8S95K_Trg-Dz-502" value="0" style="whiteSpace=wrap;html=1;aspect=fixed;fontSize=16;fillColor=#fff2cc;strokeColor=#d6b656;" vertex="1" parent="1">
          <mxGeometry x="1065" y="1494.25" width="39" height="39" as="geometry" />
        </mxCell>
        <mxCell id="tFzAAHaU8S95K_Trg-Dz-503" value="0" style="whiteSpace=wrap;html=1;aspect=fixed;fontSize=16;fillColor=#fff2cc;strokeColor=#d6b656;" vertex="1" parent="1">
          <mxGeometry x="1104" y="1494.25" width="39" height="39" as="geometry" />
        </mxCell>
        <mxCell id="tFzAAHaU8S95K_Trg-Dz-504" value="-1" style="whiteSpace=wrap;html=1;aspect=fixed;fontSize=16;fillColor=#fff2cc;strokeColor=#d6b656;" vertex="1" parent="1">
          <mxGeometry x="1143" y="1494.25" width="39" height="39" as="geometry" />
        </mxCell>
        <mxCell id="tFzAAHaU8S95K_Trg-Dz-505" value="0" style="whiteSpace=wrap;html=1;aspect=fixed;fontSize=16;fillColor=#fff2cc;strokeColor=#d6b656;" vertex="1" parent="1">
          <mxGeometry x="1026" y="1339.75" width="39" height="39" as="geometry" />
        </mxCell>
        <mxCell id="tFzAAHaU8S95K_Trg-Dz-506" value="0" style="whiteSpace=wrap;html=1;aspect=fixed;fontSize=16;fillColor=#fff2cc;strokeColor=#d6b656;" vertex="1" parent="1">
          <mxGeometry x="1065" y="1339.75" width="39" height="39" as="geometry" />
        </mxCell>
        <mxCell id="tFzAAHaU8S95K_Trg-Dz-507" value="0" style="whiteSpace=wrap;html=1;aspect=fixed;fontSize=16;fillColor=#fff2cc;strokeColor=#d6b656;" vertex="1" parent="1">
          <mxGeometry x="1104" y="1339.75" width="39" height="39" as="geometry" />
        </mxCell>
        <mxCell id="tFzAAHaU8S95K_Trg-Dz-508" value="0" style="whiteSpace=wrap;html=1;aspect=fixed;fontSize=16;fillColor=#fff2cc;strokeColor=#d6b656;" vertex="1" parent="1">
          <mxGeometry x="1143" y="1339.75" width="39" height="39" as="geometry" />
        </mxCell>
        <mxCell id="tFzAAHaU8S95K_Trg-Dz-509" value="-2" style="whiteSpace=wrap;html=1;aspect=fixed;fontSize=16;fillColor=#e51400;strokeColor=#B20000;fontColor=#ffffff;" vertex="1" parent="1">
          <mxGeometry x="1182" y="1378.75" width="39" height="39" as="geometry" />
        </mxCell>
        <mxCell id="tFzAAHaU8S95K_Trg-Dz-510" value="0" style="whiteSpace=wrap;html=1;aspect=fixed;fontSize=16;fillColor=#fff2cc;strokeColor=#d6b656;" vertex="1" parent="1">
          <mxGeometry x="1182" y="1417.75" width="39" height="39" as="geometry" />
        </mxCell>
        <mxCell id="tFzAAHaU8S95K_Trg-Dz-511" value="-1" style="whiteSpace=wrap;html=1;aspect=fixed;fontSize=16;fillColor=#fff2cc;strokeColor=#d6b656;" vertex="1" parent="1">
          <mxGeometry x="1182" y="1455.25" width="39" height="39" as="geometry" />
        </mxCell>
        <mxCell id="tFzAAHaU8S95K_Trg-Dz-512" value="0" style="whiteSpace=wrap;html=1;aspect=fixed;fontSize=16;fillColor=#fff2cc;strokeColor=#d6b656;" vertex="1" parent="1">
          <mxGeometry x="1182" y="1494.25" width="39" height="39" as="geometry" />
        </mxCell>
        <mxCell id="tFzAAHaU8S95K_Trg-Dz-513" value="0" style="whiteSpace=wrap;html=1;aspect=fixed;fontSize=16;fillColor=#fff2cc;strokeColor=#d6b656;" vertex="1" parent="1">
          <mxGeometry x="1182" y="1339.75" width="39" height="39" as="geometry" />
        </mxCell>
        <mxCell id="tFzAAHaU8S95K_Trg-Dz-514" value="-1" style="whiteSpace=wrap;html=1;aspect=fixed;fontSize=16;fillColor=#fff2cc;strokeColor=#d6b656;" vertex="1" parent="1">
          <mxGeometry x="1319" y="1378" width="39" height="39" as="geometry" />
        </mxCell>
        <mxCell id="tFzAAHaU8S95K_Trg-Dz-515" value="-2" style="whiteSpace=wrap;html=1;aspect=fixed;fontSize=16;fillColor=#e51400;fontColor=#ffffff;strokeColor=#B20000;" vertex="1" parent="1">
          <mxGeometry x="1358" y="1378" width="39" height="39" as="geometry" />
        </mxCell>
        <mxCell id="tFzAAHaU8S95K_Trg-Dz-516" value="-2" style="whiteSpace=wrap;html=1;aspect=fixed;fontSize=16;fillColor=#e51400;fontColor=#ffffff;strokeColor=#B20000;" vertex="1" parent="1">
          <mxGeometry x="1397" y="1378" width="39" height="39" as="geometry" />
        </mxCell>
        <mxCell id="tFzAAHaU8S95K_Trg-Dz-517" value="-2" style="whiteSpace=wrap;html=1;aspect=fixed;fontSize=16;fillColor=#e51400;fontColor=#ffffff;strokeColor=#B20000;" vertex="1" parent="1">
          <mxGeometry x="1436" y="1378" width="39" height="39" as="geometry" />
        </mxCell>
        <mxCell id="tFzAAHaU8S95K_Trg-Dz-518" value="0" style="whiteSpace=wrap;html=1;aspect=fixed;fontSize=16;fillColor=#fff2cc;strokeColor=#d6b656;" vertex="1" parent="1">
          <mxGeometry x="1319" y="1417" width="39" height="39" as="geometry" />
        </mxCell>
        <mxCell id="tFzAAHaU8S95K_Trg-Dz-519" value="0" style="whiteSpace=wrap;html=1;aspect=fixed;fontSize=16;" vertex="1" parent="1">
          <mxGeometry x="1358" y="1417" width="39" height="39" as="geometry" />
        </mxCell>
        <mxCell id="tFzAAHaU8S95K_Trg-Dz-520" value="0" style="whiteSpace=wrap;html=1;aspect=fixed;fontSize=16;" vertex="1" parent="1">
          <mxGeometry x="1397" y="1417" width="39" height="39" as="geometry" />
        </mxCell>
        <mxCell id="tFzAAHaU8S95K_Trg-Dz-521" value="0" style="whiteSpace=wrap;html=1;aspect=fixed;fontSize=16;" vertex="1" parent="1">
          <mxGeometry x="1436" y="1417" width="39" height="39" as="geometry" />
        </mxCell>
        <mxCell id="tFzAAHaU8S95K_Trg-Dz-522" value="-2" style="whiteSpace=wrap;html=1;aspect=fixed;fontSize=16;fillColor=#e51400;strokeColor=#B20000;fontColor=#ffffff;" vertex="1" parent="1">
          <mxGeometry x="1319" y="1454.5" width="39" height="39" as="geometry" />
        </mxCell>
        <mxCell id="tFzAAHaU8S95K_Trg-Dz-523" value="-2" style="whiteSpace=wrap;html=1;aspect=fixed;fontSize=16;fillColor=#e51400;fontColor=#ffffff;strokeColor=#B20000;" vertex="1" parent="1">
          <mxGeometry x="1358" y="1454.5" width="39" height="39" as="geometry" />
        </mxCell>
        <mxCell id="tFzAAHaU8S95K_Trg-Dz-524" value="0" style="whiteSpace=wrap;html=1;aspect=fixed;fontSize=16;" vertex="1" parent="1">
          <mxGeometry x="1397" y="1454.5" width="39" height="39" as="geometry" />
        </mxCell>
        <mxCell id="tFzAAHaU8S95K_Trg-Dz-525" value="0" style="whiteSpace=wrap;html=1;aspect=fixed;fontSize=16;" vertex="1" parent="1">
          <mxGeometry x="1436" y="1454.5" width="39" height="39" as="geometry" />
        </mxCell>
        <mxCell id="tFzAAHaU8S95K_Trg-Dz-526" value="-1" style="whiteSpace=wrap;html=1;aspect=fixed;fontSize=16;fillColor=#fff2cc;strokeColor=#d6b656;" vertex="1" parent="1">
          <mxGeometry x="1319" y="1493.5" width="39" height="39" as="geometry" />
        </mxCell>
        <mxCell id="tFzAAHaU8S95K_Trg-Dz-527" value="0" style="whiteSpace=wrap;html=1;aspect=fixed;fontSize=16;fillColor=#fff2cc;strokeColor=#d6b656;" vertex="1" parent="1">
          <mxGeometry x="1358" y="1493.5" width="39" height="39" as="geometry" />
        </mxCell>
        <mxCell id="tFzAAHaU8S95K_Trg-Dz-528" value="0" style="whiteSpace=wrap;html=1;aspect=fixed;fontSize=16;fillColor=#fff2cc;strokeColor=#d6b656;" vertex="1" parent="1">
          <mxGeometry x="1397" y="1493.5" width="39" height="39" as="geometry" />
        </mxCell>
        <mxCell id="tFzAAHaU8S95K_Trg-Dz-529" value="0" style="whiteSpace=wrap;html=1;aspect=fixed;fontSize=16;fillColor=#fff2cc;strokeColor=#d6b656;" vertex="1" parent="1">
          <mxGeometry x="1436" y="1493.5" width="39" height="39" as="geometry" />
        </mxCell>
        <mxCell id="tFzAAHaU8S95K_Trg-Dz-530" value="0" style="whiteSpace=wrap;html=1;aspect=fixed;fontSize=16;fillColor=#fff2cc;strokeColor=#d6b656;" vertex="1" parent="1">
          <mxGeometry x="1319" y="1339" width="39" height="39" as="geometry" />
        </mxCell>
        <mxCell id="tFzAAHaU8S95K_Trg-Dz-531" value="0" style="whiteSpace=wrap;html=1;aspect=fixed;fontSize=16;fillColor=#fff2cc;strokeColor=#d6b656;" vertex="1" parent="1">
          <mxGeometry x="1358" y="1339" width="39" height="39" as="geometry" />
        </mxCell>
        <mxCell id="tFzAAHaU8S95K_Trg-Dz-532" value="0" style="whiteSpace=wrap;html=1;aspect=fixed;fontSize=16;fillColor=#fff2cc;strokeColor=#d6b656;" vertex="1" parent="1">
          <mxGeometry x="1397" y="1339" width="39" height="39" as="geometry" />
        </mxCell>
        <mxCell id="tFzAAHaU8S95K_Trg-Dz-533" value="0" style="whiteSpace=wrap;html=1;aspect=fixed;fontSize=16;fillColor=#fff2cc;strokeColor=#d6b656;" vertex="1" parent="1">
          <mxGeometry x="1436" y="1339" width="39" height="39" as="geometry" />
        </mxCell>
        <mxCell id="tFzAAHaU8S95K_Trg-Dz-534" value="-1" style="whiteSpace=wrap;html=1;aspect=fixed;fontSize=16;fillColor=#fff2cc;strokeColor=#d6b656;" vertex="1" parent="1">
          <mxGeometry x="1475" y="1378" width="39" height="39" as="geometry" />
        </mxCell>
        <mxCell id="tFzAAHaU8S95K_Trg-Dz-535" value="0" style="whiteSpace=wrap;html=1;aspect=fixed;fontSize=16;fillColor=#fff2cc;strokeColor=#d6b656;" vertex="1" parent="1">
          <mxGeometry x="1475" y="1417" width="39" height="39" as="geometry" />
        </mxCell>
        <mxCell id="tFzAAHaU8S95K_Trg-Dz-536" value="-1" style="whiteSpace=wrap;html=1;aspect=fixed;fontSize=16;fillColor=#fff2cc;strokeColor=#d6b656;" vertex="1" parent="1">
          <mxGeometry x="1475" y="1454.5" width="39" height="39" as="geometry" />
        </mxCell>
        <mxCell id="tFzAAHaU8S95K_Trg-Dz-537" value="-1" style="whiteSpace=wrap;html=1;aspect=fixed;fontSize=16;fillColor=#fff2cc;strokeColor=#d6b656;" vertex="1" parent="1">
          <mxGeometry x="1475" y="1493.5" width="39" height="39" as="geometry" />
        </mxCell>
        <mxCell id="tFzAAHaU8S95K_Trg-Dz-538" value="0" style="whiteSpace=wrap;html=1;aspect=fixed;fontSize=16;fillColor=#fff2cc;strokeColor=#d6b656;" vertex="1" parent="1">
          <mxGeometry x="1475" y="1339" width="39" height="39" as="geometry" />
        </mxCell>
        <mxCell id="tFzAAHaU8S95K_Trg-Dz-539" value="&lt;div style=&quot;font-size: 20px;&quot;&gt;&lt;font style=&quot;font-size: 20px;&quot;&gt;Iter#1&lt;/font&gt;&lt;/div&gt;&lt;div style=&quot;font-size: 20px;&quot;&gt;&lt;font style=&quot;font-size: 20px;&quot;&gt;Preprocessing&lt;font style=&quot;font-size: 20px;&quot;&gt;&lt;br&gt;&lt;/font&gt;&lt;/font&gt;&lt;/div&gt;" style="text;strokeColor=none;align=center;fillColor=none;html=1;verticalAlign=middle;whiteSpace=wrap;rounded=0;" vertex="1" parent="1">
          <mxGeometry x="883" y="700" width="97" height="30" as="geometry" />
        </mxCell>
        <mxCell id="tFzAAHaU8S95K_Trg-Dz-540" value="&lt;div style=&quot;font-size: 20px;&quot;&gt;&lt;font style=&quot;font-size: 20px;&quot;&gt;Iter#2&lt;/font&gt;&lt;/div&gt;&lt;div style=&quot;font-size: 20px;&quot;&gt;&lt;font style=&quot;font-size: 20px;&quot;&gt;Preprocessing&lt;font style=&quot;font-size: 20px;&quot;&gt;&lt;br&gt;&lt;/font&gt;&lt;/font&gt;&lt;/div&gt;" style="text;strokeColor=none;align=center;fillColor=none;html=1;verticalAlign=middle;whiteSpace=wrap;rounded=0;" vertex="1" parent="1">
          <mxGeometry x="883" y="1182" width="97" height="30" as="geometry" />
        </mxCell>
        <mxCell id="tFzAAHaU8S95K_Trg-Dz-541" value="&lt;div style=&quot;font-size: 20px;&quot;&gt;&lt;font style=&quot;font-size: 20px;&quot;&gt;Iter#2&lt;/font&gt;&lt;/div&gt;&lt;font style=&quot;font-size: 20px;&quot;&gt;BFS&lt;/font&gt;" style="text;strokeColor=none;align=center;fillColor=none;html=1;verticalAlign=middle;whiteSpace=wrap;rounded=0;" vertex="1" parent="1">
          <mxGeometry x="883" y="1417" width="97" height="30" as="geometry" />
        </mxCell>
        <mxCell id="tFzAAHaU8S95K_Trg-Dz-543" value="&lt;div style=&quot;font-size: 20px;&quot;&gt;&lt;font style=&quot;font-size: 20px;&quot;&gt;Iter#1&lt;/font&gt;&lt;/div&gt;&lt;font style=&quot;font-size: 20px;&quot;&gt;BFS&lt;/font&gt;" style="text;strokeColor=none;align=center;fillColor=none;html=1;verticalAlign=middle;whiteSpace=wrap;rounded=0;" vertex="1" parent="1">
          <mxGeometry x="883" y="936.5" width="97" height="30" as="geometry" />
        </mxCell>
        <mxCell id="tFzAAHaU8S95K_Trg-Dz-545" value="" style="rounded=0;whiteSpace=wrap;html=1;fillColor=none;strokeColor=none;" vertex="1" parent="1">
          <mxGeometry x="861" y="611" width="666" height="449" as="geometry" />
        </mxCell>
      </root>
    </mxGraphModel>
  </diagram>
</mxfile>
